<svg width="1510" height="516" viewBox="0 0 1510 516" fill="none" xmlns="http://www.w3.org/2000/svg">
  <path
    d="M191.095 159.292C189.636 159.9 182.251 163.472 174.683 167.121C162.647 172.974 156.994 175.71 150.064 178.826C149.061 179.282 147.602 180.042 146.873 180.498C146.143 181.03 143.499 182.323 140.946 183.387C135.475 185.895 134.655 186.275 125.719 190.836C121.889 192.888 118.333 194.484 117.969 194.484C117.513 194.484 116.236 195.092 114.96 195.776C113.774 196.536 110.492 198.208 107.756 199.576C97.4531 204.441 85.5085 210.066 83.1378 211.13C81.8613 211.738 80.5848 212.422 80.3113 212.65C80.0377 212.954 78.8524 213.562 77.5759 214.094C76.2993 214.626 72.4698 216.45 68.9137 218.047C65.4489 219.719 61.6193 221.467 60.5252 221.999C59.3398 222.455 58.428 223.139 58.428 223.519C58.428 223.823 57.9721 224.127 57.425 224.127C56.6956 224.127 49.1277 227.7 23.7796 240.089C14.388 244.726 6.273 248.45 5.72592 248.45C4.72294 248.45 0.0727539 252.25 0.0727539 253.01C0.0727539 254.227 3.71996 253.847 6.273 252.402C10.5585 250.122 12.3821 249.21 13.7498 248.678C15.2998 248.146 25.9679 242.977 30.9828 240.317C32.8064 239.329 34.9036 238.341 35.633 238.037C36.7272 237.657 58.2457 227.244 62.987 224.887C63.7165 224.507 71.1021 220.935 79.3995 216.906C87.6968 212.878 95.0824 209.306 95.8119 208.926C102.924 205.429 107.756 203.149 110.401 201.857C116.601 198.968 137.299 189.087 138.667 188.403C139.396 188.023 141.311 187.111 142.77 186.503C145.687 185.211 147.055 184.603 153.073 181.334C155.261 180.194 157.906 178.902 159 178.446C160.094 178.066 161.826 177.306 162.829 176.774C163.832 176.242 168.391 174.038 172.859 171.833C177.418 169.629 181.704 167.501 182.433 167.045C183.162 166.665 185.26 165.753 186.992 164.993C188.724 164.157 191.46 163.016 192.919 162.332C194.469 161.648 196.475 161.268 197.478 161.496C198.481 161.8 207.508 168.717 217.537 176.926C227.567 185.135 237.779 193.268 240.332 194.864C242.794 196.536 245.712 198.512 246.715 199.348C248.721 200.869 254.192 204.441 264.951 211.13C268.963 213.638 273.887 216.678 275.893 217.895C277.899 219.187 285.558 223.367 292.852 227.32C300.147 231.196 306.894 234.844 307.897 235.376C308.809 235.909 310.906 236.821 312.365 237.505C313.915 238.113 316.377 239.253 317.835 240.089C331.695 247.462 388.5 269.732 393.424 269.732C394.153 269.732 395.065 270.036 395.339 270.492C395.612 270.872 397.8 271.709 400.171 272.317C402.542 272.925 406.736 274.141 409.471 275.053C412.207 275.965 415.945 277.029 417.678 277.409C419.41 277.865 422.328 278.625 424.06 279.157C428.346 280.526 437.828 282.958 445.032 284.554C448.314 285.238 452.964 286.378 455.335 286.91C459.803 288.05 463.359 288.734 472.386 290.331C475.121 290.787 479.224 291.623 481.504 292.155C483.783 292.763 488.798 293.523 492.81 293.979C496.731 294.435 500.287 294.967 500.652 295.195C501.29 295.499 508.949 296.563 525.726 298.54C547.883 301.2 550.254 301.2 748.206 301.504C966.947 301.808 954.364 302.036 996.216 296.715C1011.81 294.739 1017.19 293.903 1021.29 292.915C1023.57 292.307 1027.03 291.699 1029.04 291.395C1037.79 290.331 1068.25 283.262 1085.57 278.397C1102.17 273.761 1108.55 271.861 1111.28 270.872C1112.83 270.264 1114.38 269.732 1114.75 269.732C1115.11 269.732 1116.66 269.276 1118.21 268.668C1119.86 268.06 1126.97 265.476 1134.08 262.968C1148.49 257.799 1159.79 253.391 1167 250.046C1169.64 248.83 1172.56 247.614 1173.38 247.386C1174.2 247.158 1175.57 246.626 1176.3 246.246C1177.03 245.866 1185.51 241.685 1194.99 237.049C1217.24 226.179 1219.7 224.887 1230.91 218.047C1236.02 214.93 1242.04 211.282 1244.23 210.066C1256.35 202.921 1271.85 191.52 1292.73 174.342C1300.94 167.653 1308.33 161.876 1309.24 161.572C1310.88 160.964 1314.53 162.028 1320.82 165.221C1322.82 166.209 1325.1 167.273 1325.83 167.577C1326.56 167.881 1331.94 170.389 1337.69 173.202C1343.43 176.014 1349.9 179.13 1352 180.118C1354.01 181.106 1358.57 183.311 1361.94 184.983C1369.78 188.783 1372.97 190.303 1376.44 191.824C1377.99 192.508 1380.63 193.724 1382.36 194.636C1386.56 196.688 1391.94 199.272 1397.41 201.629C1399.78 202.693 1402.24 203.909 1402.79 204.213C1403.33 204.593 1405.61 205.733 1407.89 206.721C1410.17 207.709 1412.64 208.926 1413.36 209.382C1414.09 209.838 1417.01 211.282 1419.75 212.498C1424.21 214.55 1429.5 217.058 1446.92 225.495C1449.84 226.864 1453.39 228.46 1455.03 229.068C1456.58 229.676 1458.13 230.512 1458.5 230.968C1458.77 231.348 1461.23 232.64 1463.79 233.704C1466.43 234.768 1470.17 236.517 1472.18 237.505C1474.18 238.493 1476.64 239.633 1477.65 240.089C1478.65 240.469 1481.11 241.685 1483.12 242.749C1485.12 243.737 1488.04 245.106 1489.5 245.714C1494.06 247.614 1501.17 251.034 1503.63 252.478C1504.82 253.162 1506.82 253.771 1507.92 253.771C1512.2 253.771 1509.83 251.566 1501.17 247.31C1496.25 244.954 1491.6 242.749 1490.87 242.369C1490.14 241.989 1484.58 239.405 1478.56 236.593C1472.54 233.78 1464.61 229.98 1460.96 228.156C1457.22 226.407 1454.03 224.887 1453.76 224.887C1453.48 224.887 1450.75 223.595 1447.65 221.999C1438.89 217.514 1441.17 218.655 1422.94 210.142C1416.92 207.253 1411.36 204.593 1410.63 204.061C1409.9 203.605 1407.62 202.541 1405.61 201.705C1403.61 200.869 1399.87 199.12 1397.23 197.752C1394.58 196.384 1392.21 195.244 1391.85 195.244C1391.57 195.244 1387.93 193.572 1383.82 191.52C1374.52 186.883 1360.57 180.194 1345.89 173.354C1339.6 170.389 1329.75 165.753 1324.01 163.016C1315.44 158.912 1312.79 158 1309.51 158C1305.5 158 1305.41 158.076 1292.19 169.553C1273.13 186.123 1252.71 200.945 1233.38 212.346C1231.92 213.182 1229.09 214.93 1226.99 216.146C1222.43 218.959 1204.84 228.764 1202.28 229.904C1198.09 231.804 1193.53 234.008 1190.06 235.833C1188.06 236.973 1186.14 237.809 1185.87 237.809C1185.69 237.809 1183.32 238.949 1180.67 240.317C1178.03 241.685 1172.19 244.345 1167.63 246.17C1163.17 247.994 1159.34 249.742 1159.15 250.122C1158.97 250.426 1158.33 250.73 1157.79 250.73C1157.15 250.73 1153.87 251.87 1150.31 253.314C1146.85 254.683 1141.92 256.583 1139.37 257.495C1136.91 258.407 1133.17 259.851 1131.16 260.611C1124.78 263.12 1119.58 264.944 1110.19 267.832C1105.18 269.352 1100.25 270.948 1099.25 271.329C1096.51 272.317 1090.04 274.141 1081.92 276.269C1077.91 277.333 1073.45 278.549 1071.9 279.005C1069.16 279.765 1064.69 280.754 1054.57 283.034C1051.56 283.718 1048.28 284.554 1047.28 284.934C1046.27 285.238 1043.17 285.922 1040.44 286.378C1037.7 286.834 1031.96 287.898 1027.67 288.734C1019.65 290.331 1009.98 291.851 998.951 293.295C995.486 293.751 989.742 294.663 986.186 295.271C982.721 295.803 974.879 296.639 968.861 297.095C962.844 297.475 953.999 298.16 949.258 298.616C943.878 299.072 869.11 299.376 752.765 299.376C595.935 299.376 563.019 299.224 553.08 298.312C546.606 297.703 538.218 297.019 534.479 296.791C530.741 296.563 526.273 296.031 524.45 295.651C522.626 295.271 517.338 294.511 512.779 294.055C508.128 293.675 503.296 292.915 502.019 292.535C500.652 292.079 498.554 291.775 497.278 291.775C494.998 291.775 486.336 290.255 471.474 287.138C467.736 286.378 461.991 285.238 458.709 284.554C455.426 283.87 450.958 282.882 448.679 282.274C446.399 281.666 440.929 280.298 436.37 279.233C431.902 278.093 426.705 276.801 424.972 276.269C423.24 275.661 419.501 274.673 416.766 273.913C411.295 272.393 387.953 265.02 383.485 263.272C382.026 262.74 378.106 261.371 374.823 260.231C370.082 258.635 337.804 245.486 327.501 240.925C322.121 238.569 302.973 228.992 298.961 226.636C296.59 225.267 294.402 224.127 294.22 224.127C293.126 224.127 269.054 209.838 261.121 204.441C259.207 203.149 253.553 199.348 248.539 195.928C237.779 188.707 218.176 172.974 208.875 164.233C202.401 158.076 202.31 158 198.116 158C195.745 158.076 192.645 158.608 191.095 159.292Z"
    fill="#4285F4" fill-opacity="0.5" />
  <path
    d="M196.384 173.202C195.381 173.582 189.454 176.242 183.345 179.206C177.327 182.171 172.13 184.603 171.856 184.603C171.583 184.603 169.121 185.819 166.385 187.263C163.65 188.707 161.279 189.924 161.097 189.924C160.914 189.924 156.355 192.052 150.976 194.636C145.687 197.296 140.125 199.957 138.849 200.565C136.752 201.553 131.554 204.061 122.436 208.546C121.525 208.926 115.142 212.042 108.121 215.386C101.1 218.731 94.6265 221.771 93.8059 222.227C88.5175 224.887 79.4906 229.22 77.3935 230.208C76.0258 230.816 72.5609 232.488 69.7344 233.856C66.9078 235.301 62.2576 237.429 59.431 238.721C56.6044 240.013 53.6867 241.457 52.9572 241.989C52.2278 242.521 49.5836 243.89 47.0305 244.954C40.3744 247.918 19.6765 257.723 9.64666 262.664C8.64368 263.196 6.82008 263.956 5.54356 264.412C0.893373 266.16 -1.84203 269.732 1.44045 269.732C2.89934 269.732 13.7498 265.096 16.4852 263.348C17.8529 262.512 19.0382 261.98 25.512 258.939C38.0949 253.163 44.6598 249.742 49.7659 246.55C52.1366 245.03 53.2308 245.106 52.6837 246.854C52.4101 247.842 52.9572 248.906 54.2337 249.742L56.1485 251.11L54.3249 249.286L52.5013 247.386L54.872 248.906L57.2427 250.35L52.319 256.051C49.6747 259.167 46.3922 263.424 45.0245 265.552C43.748 267.604 42.3803 269.504 42.1068 269.732C41.7421 269.96 39.4626 273.001 37.0007 276.421C34.4477 279.918 31.8034 283.718 30.9828 284.782C29.4327 286.834 27.9739 288.887 18.0352 302.948C15.1175 307.053 12.3821 310.929 11.9262 311.537C1.44045 325.523 -0.474328 329.171 1.25809 331.679C1.98753 332.82 10.0114 340.876 21.8648 352.202C33.8094 363.679 38.2772 368.011 46.4834 375.992C51.6807 381.085 56.3309 385.265 56.6956 385.265C57.1515 385.265 57.5162 386.177 57.5162 387.242C57.5162 388.382 57.1515 388.99 56.6044 388.686C56.0573 388.382 54.7808 389.066 53.7778 390.13L51.9542 392.106H30.1622C11.1967 392.106 8.37014 392.258 7.91424 393.322C7.6407 394.006 7.54952 394.842 7.91424 395.222C8.18778 395.603 45.754 395.907 99.4591 395.907H190.548L193.83 398.263C197.478 400.923 197.842 403.659 194.742 404.115C193.739 404.268 192.098 405.104 191.004 405.864C189.18 407.308 186.718 407.384 100.736 407.308C52.1366 407.308 11.4703 407.536 10.3761 407.764C9.09958 408.068 8.27896 408.828 8.27896 409.664C8.27896 411.032 10.7408 411.108 98.6385 411.108L188.907 411.032L191.825 413.008C193.466 414.073 195.289 415.289 195.928 415.745C196.748 416.277 197.022 422.662 197.022 442.88V469.331L194.104 471.687C192.007 473.359 189.819 474.195 186.81 474.575C184.348 474.879 182.433 475.335 182.342 475.639C181.886 479.592 181.612 513.796 182.068 514.708C182.342 515.392 183.162 516 183.892 516C184.986 516 185.168 513.112 185.168 499.354V482.784L188.542 480.352C190.822 478.756 192.919 477.996 195.107 477.92C200.76 477.768 201.946 478.072 205.046 480.504L207.963 482.86V499.43C207.963 515.468 208.055 516 209.787 516C211.519 516 211.611 515.468 211.611 497.15C211.611 486.813 211.337 477.616 211.064 476.704C210.699 475.715 209.331 474.727 207.69 474.195C206.14 473.739 203.678 472.523 202.31 471.383L199.757 469.331V443.032V416.733L203.04 414.073L206.231 411.488L754.132 411.108C1196.54 410.804 1302.22 410.88 1302.58 411.716C1302.76 412.248 1304.4 413.389 1306.23 414.225L1309.42 415.821V442.804C1309.42 467.659 1309.33 469.939 1307.87 470.927C1303.77 473.587 1302.03 474.347 1298.93 474.575C1297.11 474.727 1295.47 474.955 1295.29 475.107C1295.1 475.259 1294.83 484.456 1294.83 495.478C1294.65 513.872 1294.83 515.62 1296.2 515.62C1297.57 515.62 1297.75 514.252 1297.66 501.178C1297.57 493.197 1297.84 485.825 1298.2 484.684C1298.66 483.62 1300.3 481.416 1301.94 479.896C1304.95 477.16 1305.13 477.16 1309.69 477.616C1313.25 477.996 1315.16 478.756 1317.44 480.504L1320.45 482.936L1320.27 499.278C1320.18 513.796 1320.36 515.62 1321.64 515.848C1322.91 516.076 1323.1 514.1 1323.1 495.554V474.955H1320.54C1318.72 474.955 1317.08 474.119 1315.07 472.219L1312.15 469.483V442.728V415.897L1315.16 413.313L1318.17 410.728L1409.81 410.88C1460.14 411.032 1502.27 410.88 1503.45 410.652C1505.82 410.12 1506.09 408.448 1504 407.764C1503.18 407.536 1460.96 407.308 1410.08 407.308H1317.63L1314.89 405.18C1311.43 402.367 1311.43 400.847 1315.07 398.339L1317.99 396.287L1411.45 395.907C1504.27 395.527 1505 395.527 1505 394.006C1505 392.562 1504.27 392.486 1481.29 392.258L1457.59 391.954L1455.03 389.446L1452.48 386.862L1469.35 368.011C1478.65 357.674 1486.86 348.477 1487.59 347.641C1488.31 346.805 1492.24 342.397 1496.25 337.912C1505.37 327.727 1505.46 327.119 1499.07 317.39C1496.52 313.513 1494.06 309.865 1493.6 309.257C1493.15 308.649 1489.68 303.48 1485.85 297.856C1482.02 292.231 1478.47 287.062 1478.01 286.454C1477.65 285.846 1474.91 281.894 1472.08 277.713C1467.62 271.177 1464.24 266.388 1459.23 259.471C1458.59 258.635 1457.68 257.191 1457.22 256.279C1456.77 255.367 1455.76 254.379 1455.13 253.999C1453.03 252.935 1451.57 250.122 1452.75 249.514C1453.39 249.21 1453.48 249.286 1453.12 249.818C1452.02 251.338 1454.03 250.806 1455.76 249.21C1456.68 248.374 1456.95 247.69 1456.4 247.69C1455.76 247.69 1455.31 247.158 1455.31 246.55C1455.31 244.726 1457.5 245.182 1461.78 247.918C1463.97 249.362 1466.25 250.654 1466.7 250.806C1467.62 251.11 1479.83 256.887 1482.66 258.331C1489.77 261.98 1506.73 269.732 1507.64 269.732C1511.11 269.732 1509.47 266.388 1505.18 264.716C1502.45 263.652 1496.34 260.915 1487.22 256.583C1484.94 255.519 1481.11 253.695 1478.56 252.555C1476.1 251.49 1473.82 250.35 1473.54 250.046C1473.27 249.818 1471.26 248.754 1468.98 247.766C1466.7 246.854 1463.24 245.334 1461.23 244.422C1459.23 243.586 1457.4 242.597 1457.13 242.369C1456.86 242.065 1450.93 239.253 1443.91 236.061C1436.89 232.792 1430.51 229.828 1429.78 229.448C1427.5 228.308 1412.27 221.011 1408.81 219.415C1407.07 218.655 1404.98 217.667 1404.25 217.287C1402.88 216.603 1385.1 208.014 1376.89 204.213C1374.61 203.149 1370.33 201.021 1367.32 199.577C1364.31 198.056 1360.21 196.08 1358.2 195.168C1354.1 193.268 1336.68 185.135 1321.73 178.066C1316.17 175.482 1310.79 173.202 1309.88 173.126C1307.5 172.746 1305.77 173.734 1305.77 175.406C1305.77 176.926 1294.19 186.883 1292.46 186.883C1291.82 186.883 1290.45 187.871 1289.45 189.087C1287.44 191.444 1264.65 208.85 1256.99 213.866C1254.53 215.538 1252.25 217.059 1251.98 217.287C1248.78 220.251 1214.96 239.633 1199.82 247.158C1191.71 251.262 1163.26 264.108 1157.15 266.464C1154.87 267.376 1148.58 269.808 1143.2 271.937C1137.82 274.065 1132.99 275.813 1132.53 275.813C1132.17 275.813 1130.62 276.269 1129.16 276.877C1123.69 279.234 1105.27 285.238 1091.5 289.115C1086.21 290.635 1080.74 292.155 1079.19 292.611C1075.27 293.751 1068.07 295.499 1062.69 296.639C1060.13 297.172 1057.31 298.008 1056.3 298.464C1055.39 298.844 1052.66 299.452 1050.19 299.756C1047.82 300.06 1045.64 300.592 1045.36 300.972C1045.09 301.352 1043.99 301.656 1042.99 301.656C1041.9 301.656 1037.34 302.34 1032.78 303.252C1016.46 306.293 1012.54 306.977 1006.34 307.737C1002.87 308.193 999.589 308.801 999.133 309.029C998.313 309.409 984.636 310.929 968.861 312.297C964.394 312.677 956.187 313.437 950.625 313.969C938.954 315.034 581.62 315.642 569.948 314.577C566.21 314.273 558.186 313.741 552.168 313.437C546.15 313.133 538.765 312.601 535.756 312.221C532.747 311.841 526.364 311.157 521.623 310.701C516.882 310.245 510.499 309.409 507.49 308.877C504.481 308.269 499.74 307.585 497.004 307.281C494.269 307.053 490.439 306.293 488.433 305.76C486.519 305.152 483.601 304.696 481.96 304.696C480.318 304.696 477.309 304.24 475.304 303.632C473.298 303.024 469.65 302.264 467.188 301.96C464.818 301.732 462.447 301.2 461.9 300.896C461.444 300.592 459.165 300.06 456.885 299.756C454.606 299.452 451.961 298.844 451.05 298.464C450.047 298.008 446.946 297.248 444.211 296.715C441.385 296.183 436.278 294.891 432.722 293.903C429.258 292.839 423.057 291.091 419.045 290.027C407.283 286.834 402.086 285.238 396.706 283.262C393.971 282.198 390.597 281.134 389.321 280.906C387.953 280.602 383.759 279.158 380.02 277.713C376.282 276.269 372.999 275.053 372.635 275.053C370.538 275.053 323.489 255.443 319.659 253.011C319.203 252.631 316.285 251.338 313.276 250.046C310.268 248.678 305.344 246.246 302.335 244.65C299.326 242.977 296.226 241.381 295.496 241.077C294.311 240.621 284.828 235.225 271.789 227.548C255.924 218.351 242.612 209.078 219.908 191.52C204.772 179.89 200.578 176.09 201.125 174.798C201.398 174.19 201.125 173.43 200.487 173.05C199.119 172.366 198.937 172.366 196.384 173.202ZM201.581 182.019C202.766 184.451 203.131 185.895 202.584 186.807C201.307 188.707 202.766 190.38 204.316 188.783C204.954 188.175 205.137 187.643 204.863 187.643C204.499 187.643 204.499 187.263 204.772 186.883C205.137 186.351 206.505 186.579 208.51 187.643C210.334 188.479 211.428 188.707 211.064 188.251C210.699 187.719 211.246 187.947 212.34 188.707C213.434 189.543 214.346 190.608 214.346 191.064C214.346 191.596 215.167 192.204 216.17 192.432C217.173 192.66 218.267 193.344 218.54 194.028C219.361 195.776 231.579 205.505 243.068 213.486C248.63 217.363 254.648 221.619 256.562 223.063L260.027 225.648L260.666 246.398C261.486 275.889 261.486 277.029 259.207 279.082C258.204 279.994 257.201 281.438 257.018 282.274C256.471 284.858 251.548 277.409 247.991 268.668C246.989 266.236 244.527 261.524 242.521 258.255C240.606 254.987 238.965 251.946 238.965 251.49C238.965 251.11 237.688 248.602 236.138 246.018C234.679 243.358 232.217 238.797 230.85 235.909C224.102 222.075 211.702 200.565 210.516 200.565C210.152 200.565 209.787 199.957 209.787 199.197C209.787 198.436 209.149 197.068 208.328 196.08C207.143 194.712 206.687 194.56 206.049 195.32C205.502 196.08 205.228 195.928 205.228 194.636C205.228 193.724 204.863 192.964 204.316 192.964C203.04 192.964 203.04 192.964 206.505 198.741C209.787 204.289 209.969 204.517 216.626 217.667C218.996 222.227 221.64 227.396 222.552 229.068C223.464 230.74 225.926 235.149 227.841 238.949C229.847 242.673 232.582 247.842 233.95 250.35C235.226 252.859 236.959 256.127 237.779 257.571C240.788 263.272 242.521 266.54 245.165 271.253C246.624 273.989 248.994 278.397 250.362 281.134C252.824 286.226 254.101 288.507 258.933 297.324C260.483 300.136 261.76 303.1 261.76 303.936C261.76 304.772 260.301 307.205 258.568 309.257C256.836 311.309 255.377 313.209 255.377 313.437C255.377 313.665 254.556 314.806 253.645 315.946C251.092 318.91 243.159 329.171 242.338 330.539C241.609 331.755 236.959 337.988 228.57 348.933C220.546 359.422 213.981 367.935 212.705 369.684C207.963 376.068 205.775 378.425 204.681 378.425C203.951 378.425 203.404 377.969 203.404 377.437C203.404 376.828 202.584 375.764 201.581 375.004C199.757 373.636 199.757 372.648 199.757 288.811C199.757 213.258 199.94 203.757 201.216 202.237C202.31 200.869 202.31 200.565 201.398 200.565C200.669 200.565 199.575 201.021 199.028 201.477C198.116 202.237 197.66 202.237 196.931 201.325C196.11 200.413 196.019 200.489 196.475 201.629C196.839 202.465 197.113 241.533 197.113 288.507C197.022 362.691 196.839 374.168 195.745 375.536C194.925 376.448 194.469 377.36 194.651 377.589C194.833 377.817 195.198 378.729 195.563 379.565C196.201 381.009 196.292 381.009 197.478 379.717C198.298 378.805 198.845 378.653 199.301 379.185C199.666 379.641 200.669 379.793 201.672 379.565C203.951 378.957 203.951 380.477 201.581 382.073C200.578 382.833 199.484 384.505 199.21 385.797C198.754 387.85 198.937 388.306 200.213 388.306C201.307 388.306 201.581 388.686 201.125 389.598C200.76 390.358 200.213 391.574 200.031 392.334C199.392 394.006 197.751 393.626 197.387 391.802C197.295 391.042 196.931 390.282 196.657 390.054C196.384 389.826 196.566 388.99 197.113 388.154C198.39 386.177 196.566 381.769 193.739 380.173C192.554 379.565 191.551 378.729 191.551 378.349C191.551 377.969 190.092 375.992 188.451 374.016C186.718 372.04 184.804 369.532 184.348 368.544C183.801 367.479 182.98 366.111 182.433 365.503C181.977 364.895 176.415 356.838 170.124 347.641C163.832 338.444 158.27 330.387 157.814 329.779C154.623 325.371 144.958 311.537 143.955 310.017C143.317 308.953 141.949 307.205 141.037 306.065C139.031 303.556 138.94 299.452 140.764 296.563C141.493 295.423 143.226 292.231 144.593 289.495C147.511 283.49 147.785 283.034 151.796 275.585C153.62 272.393 155.079 269.428 155.079 269.124C155.079 268.82 155.717 267.528 156.538 266.312C157.358 265.02 158.544 262.816 159.182 261.372C159.82 259.927 161.644 256.279 163.285 253.391C167.297 245.942 168.3 244.042 174.683 231.348C176.962 226.712 179.971 220.935 181.43 218.427C182.889 215.918 184.257 212.802 184.621 211.434C184.986 210.142 185.898 208.622 186.627 208.09C187.357 207.634 187.904 206.645 187.904 205.961C187.904 205.277 189.363 202.997 191.095 200.945C192.828 198.817 195.654 194.636 197.478 191.52C200.669 185.971 201.216 183.235 199.028 183.615C197.751 183.843 197.66 183.083 198.754 181.639C199.301 180.955 199.301 179.966 198.663 179.054C198.025 177.99 198.025 177.762 198.754 178.066C199.301 178.37 200.487 180.118 201.581 182.019ZM193.557 187.491C192.645 188.631 190.092 192.964 187.995 197.144C185.898 201.325 183.527 205.733 182.889 207.025C182.251 208.242 180.518 211.51 179.15 214.246C177.783 216.983 175.503 221.315 174.044 223.899C172.677 226.484 171.491 228.764 171.491 228.992C171.491 229.22 170.306 231.576 168.847 234.16C167.388 236.821 163.923 243.586 161.097 249.21C158.27 254.835 155.352 260.459 154.714 261.752C153.438 264.108 150.885 268.82 148.423 273.533C147.602 274.977 145.87 278.397 144.593 281.134C143.226 283.87 141.128 286.986 139.943 288.051C138.667 289.191 137.937 290.483 138.211 291.167C138.575 291.851 137.755 293.599 136.478 295.119C134.29 297.78 134.199 297.856 133.56 296.183C133.105 295.195 132.831 294.131 132.74 293.827C132.74 293.523 132.193 292.915 131.463 292.611C130.46 292.079 130.369 290.939 130.734 287.822C131.099 285.618 131.372 267.3 131.372 247.082L131.463 210.446L135.202 207.482C137.208 205.809 148.605 199.805 160.459 194.104C172.312 188.327 183.618 182.703 185.533 181.563L189.18 179.51L192.189 182.475C195.198 185.515 195.198 185.515 193.557 187.491ZM1311.15 182.019C1311.52 181.791 1311.88 182.019 1311.88 182.551C1311.88 183.083 1312.06 183.767 1312.15 184.223C1312.34 184.603 1312.15 185.895 1311.79 187.035C1311.24 188.555 1311.52 189.772 1312.88 191.596L1314.71 194.104L1312.06 195.852C1310.6 196.84 1309.42 197.296 1309.42 196.916C1309.42 196.46 1308.6 196.308 1307.6 196.536C1305.32 197.068 1305.32 197.296 1307.6 200.413C1309.42 202.845 1309.42 204.289 1309.42 289.115V375.308L1307.41 377.969C1306.23 379.413 1305.04 380.629 1304.68 380.705C1304.31 380.705 1302.67 378.805 1301.03 376.448C1299.39 374.092 1297.29 371.28 1296.47 370.216C1295.65 369.076 1293.74 366.263 1292.19 363.983C1290.73 361.703 1288.45 358.282 1287.26 356.382C1285.99 354.482 1284.34 352.126 1283.62 351.062C1278.51 343.461 1276.5 340.42 1270.58 331.907C1266.84 326.663 1263.83 322.026 1263.83 321.798C1263.83 321.494 1262.64 319.746 1261.09 317.846C1259.63 316.022 1258.36 314.349 1258.36 314.121C1258.36 313.893 1256.72 311.385 1254.71 308.497C1250.52 302.568 1250.24 300.06 1252.98 294.967C1255.17 290.863 1256.9 287.518 1259.45 282.654C1260.46 280.754 1261.73 278.169 1262.46 276.953C1263.19 275.661 1264.83 272.545 1266.11 269.96C1267.39 267.3 1269.39 263.348 1270.58 261.22C1271.85 259.015 1274.77 253.391 1277.05 248.83C1279.42 244.194 1281.88 239.405 1282.52 238.189C1283.62 236.213 1284.62 234.236 1288.45 226.788C1288.9 225.952 1290.91 221.847 1293.01 217.667C1295.01 213.486 1297.29 209.002 1298.02 207.786C1298.66 206.493 1299.57 204.745 1299.85 203.757C1300.21 202.845 1301.76 200.565 1303.49 198.741C1307.6 194.256 1308.78 192.204 1308.87 189.696C1308.96 188.175 1308.69 187.871 1308.05 188.631C1307.6 189.239 1306.59 189.543 1306.05 189.391C1305.41 189.163 1304.86 189.543 1304.86 190.152C1304.86 190.76 1303.4 193.116 1301.58 195.32C1297.75 200.109 1296.47 202.313 1287.08 220.707C1283.25 228.232 1278.97 236.441 1277.6 238.949C1276.14 241.457 1274.5 244.802 1273.95 246.322C1273.31 247.918 1272.4 249.362 1271.94 249.59C1271.49 249.894 1271.12 250.502 1271.12 251.11C1271.12 251.642 1269.66 254.759 1267.93 257.875C1266.2 261.067 1264.74 263.88 1264.74 264.26C1264.65 264.564 1263.92 266.16 1262.92 267.832C1261.91 269.504 1261.18 271.329 1261.09 271.861C1261.09 273.913 1252.89 286.302 1252.89 284.326C1252.89 283.794 1251.98 282.274 1250.88 281.058C1248.78 278.701 1248.78 278.625 1249.06 254.303C1249.24 239.329 1249.06 229.068 1248.51 227.852C1247.6 226.028 1248.05 225.496 1253.16 221.315C1256.26 218.807 1261.91 214.778 1265.65 212.346C1273.59 207.177 1293.74 190.76 1296.84 186.883C1298.02 185.439 1299.39 184.223 1299.85 184.223C1300.39 184.147 1301.76 183.843 1302.95 183.539C1304.77 183.007 1305.59 183.235 1306.77 184.527C1307.78 185.591 1308.6 185.819 1308.96 185.363C1309.33 184.907 1308.96 183.919 1308.14 183.159C1306.87 181.943 1306.87 181.715 1308.33 180.498C1309.78 179.282 1309.88 179.282 1310.15 180.803C1310.33 181.639 1310.79 182.171 1311.15 182.019ZM1326.83 184.071C1329.75 185.667 1341.15 191.216 1344.07 192.432C1344.8 192.812 1346.89 193.8 1348.72 194.712C1350.54 195.624 1355.47 197.904 1359.57 199.805C1363.76 201.705 1368.87 204.517 1371.06 206.113L1375.07 209.078V241.153C1375.07 271.785 1374.98 273.381 1373.34 274.597C1372.42 275.357 1371.42 276.649 1371.15 277.485C1370.69 278.853 1370.97 278.777 1373.34 276.877C1375.62 275.053 1375.98 274.977 1375.98 276.193C1375.98 276.953 1375.07 279.158 1373.97 280.982C1372.15 284.098 1371.97 284.25 1370.78 283.034C1370.15 282.198 1369.6 280.678 1369.6 279.538C1369.6 278.169 1368.78 277.105 1367.32 276.269C1366.04 275.509 1364.49 274.065 1363.94 272.925C1362.12 268.972 1361.48 267.832 1358.57 262.512C1352.73 251.642 1351.09 248.678 1347.62 242.597C1345.62 239.177 1344.07 236.213 1344.07 235.985C1344.07 235.757 1342.61 232.868 1340.79 229.676C1338.96 226.408 1336.32 221.695 1334.95 219.187C1330.12 210.294 1327.75 206.113 1324.01 199.425C1321.91 195.624 1319.45 190.988 1318.54 189.087C1316.9 185.591 1316.9 185.591 1318.81 183.919C1321.27 181.867 1323.01 181.867 1326.83 184.071ZM1320.18 199.501C1321.27 201.021 1322.18 202.617 1322.18 203.149C1322.18 204.061 1323.37 206.341 1330.94 220.175C1332.12 222.379 1333.13 224.279 1333.13 224.431C1333.13 224.583 1335.59 228.992 1338.6 234.236C1341.51 239.481 1345.07 245.942 1346.44 248.602C1347.71 251.262 1349.45 254.075 1350.09 254.911C1350.81 255.747 1351.36 256.963 1351.36 257.647C1351.36 258.331 1352 259.319 1352.73 259.851C1353.46 260.383 1354.1 261.22 1354.1 261.752C1354.1 262.284 1356.19 266.464 1358.75 271.025C1361.3 275.509 1364.4 281.134 1365.59 283.414C1366.86 285.694 1368.41 288.507 1369.14 289.647C1369.87 290.711 1370.51 292.155 1370.51 292.763C1370.51 293.371 1371.06 294.283 1371.79 294.739C1372.52 295.195 1373.25 296.411 1373.52 297.324C1373.79 298.236 1374.34 300.06 1374.89 301.352C1376.16 304.848 1376.16 304.848 1356.92 328.867C1351.09 336.088 1345.98 342.549 1345.44 343.309C1344.98 343.993 1339.78 350.606 1333.95 357.902C1328.2 365.199 1322.18 372.8 1320.73 374.776C1319.27 376.828 1317.9 378.425 1317.63 378.425C1317.35 378.425 1316.17 377.132 1314.89 375.536L1312.61 372.724L1312.34 288.127L1312.15 203.605L1314.16 199.881C1315.35 197.828 1316.71 196.308 1317.17 196.536C1317.72 196.688 1318.99 198.056 1320.18 199.501ZM1396.59 217.439C1397.59 218.199 1398.78 218.807 1399.14 218.807C1399.51 218.807 1406.16 221.847 1413.91 225.648C1421.57 229.372 1428.14 232.488 1428.41 232.488C1429.5 232.488 1436.62 236.897 1439.9 239.557L1443.27 242.293V272.089C1443.27 300.896 1443.18 302.036 1441.36 304.012L1439.53 306.141L1437.98 304.468C1437.07 303.556 1436.62 302.34 1436.89 301.808C1437.16 301.2 1436.25 299.984 1435.07 299.148C1433.79 298.236 1429.14 291.623 1424.67 284.554C1420.29 277.409 1414.73 268.364 1412.18 264.412C1409.72 260.459 1404.79 252.403 1401.15 246.55C1394.13 235.149 1387.38 224.583 1384.46 220.403L1382.73 217.743L1385.46 215.614C1387.01 214.474 1387.74 213.486 1387.1 213.486C1386.47 213.486 1386.19 213.182 1386.47 212.726C1387.01 211.966 1392.76 214.702 1396.59 217.439ZM121.342 221.315C120.339 223.063 117.786 227.244 115.598 230.588C113.41 233.932 108.304 242.141 104.109 248.83C99.915 255.519 94.2618 264.564 91.5264 268.972C88.791 273.381 84.5055 280.222 82.0437 284.174C79.5818 288.127 76.5729 292.383 75.4787 293.523L73.2904 295.651L70.8285 292.535L68.2755 289.343L68.3667 265.324C68.4578 243.282 68.6402 241.077 70.1903 239.329C72.0139 237.201 77.7582 233.704 83.9585 230.892C86.238 229.904 88.2439 228.84 88.5175 228.612C88.9734 228.156 92.0735 226.712 96.7237 224.735C98.0002 224.279 101.191 222.683 103.836 221.315C106.48 219.947 108.851 218.807 109.033 218.807C109.307 218.807 111.404 217.667 113.683 216.298L117.877 213.714L120.522 215.994L123.166 218.199L121.342 221.315ZM1381.91 227.168C1382.18 227.548 1382 227.928 1381.54 227.928C1381 227.928 1380.54 227.548 1380.54 227.168C1380.54 226.712 1380.72 226.408 1380.9 226.408C1381.18 226.408 1381.63 226.712 1381.91 227.168ZM125.537 235.605C126.631 236.593 126.813 246.854 126.813 304.62V372.42L124.442 375.004L122.072 377.589L120.066 375.536C118.972 374.396 115.78 370.748 112.954 367.403C110.218 363.983 106.48 359.499 104.565 357.294C102.742 355.09 99.8238 351.594 98.0914 349.541C96.359 347.413 93.4412 343.993 91.7088 341.941C89.9763 339.812 87.0586 336.392 85.3262 334.34C83.5937 332.211 80.676 328.715 78.8524 326.511C77.0288 324.383 75.0228 322.026 74.3845 321.418C73.7463 320.81 72.3786 318.986 71.3756 317.314L69.4608 314.349L76.3905 303.252C80.1289 297.172 85.5997 288.355 88.5175 283.794C94.9913 273.533 97.4531 269.656 109.398 250.35C114.595 241.989 119.336 234.617 120.066 233.932C120.795 233.324 121.342 232.108 121.342 231.272C121.342 230.208 121.707 230.436 122.801 232.108C123.531 233.324 124.807 234.921 125.537 235.605ZM1238.21 231.196C1238.75 231.804 1239.03 232.488 1238.75 232.716C1238.48 233.02 1238.57 233.096 1238.94 232.868C1239.76 232.336 1241.95 234.008 1241.95 235.225C1241.95 235.833 1241.22 236.973 1240.4 237.733C1239.48 238.569 1238.12 239.861 1237.39 240.545C1236.11 241.913 1219.15 265.172 1219.15 265.628C1219.15 265.856 1217.97 267.528 1212.13 275.433C1208.48 280.374 1191.98 303.556 1190.7 305.684C1189.79 306.977 1189.06 307.585 1189.06 306.977C1189.06 306.369 1187.78 304.316 1186.23 302.416L1183.41 298.996L1183.96 279.614L1184.59 260.231L1187.51 257.951C1189.15 256.659 1194.53 253.619 1199.55 251.186C1211.4 245.334 1224.71 237.961 1231 233.704C1236.66 229.828 1236.75 229.828 1238.21 231.196ZM1391.94 241.989C1404.06 261.144 1410.81 271.861 1413.46 276.193C1414.91 278.701 1418.56 284.478 1421.48 289.115C1424.4 293.675 1429.78 302.34 1433.42 308.269L1440.08 318.986L1429.69 330.311C1416.46 344.677 1416.19 344.981 1409.99 351.822C1407.16 354.938 1404.52 357.674 1404.25 357.902C1403.97 358.13 1401.06 361.171 1397.86 364.743C1389.2 374.396 1384.19 379.413 1384.19 378.577C1384.19 378.121 1383.18 376.752 1381.91 375.536L1379.63 373.256V305.152V237.125L1381.91 234.313C1383.18 232.792 1384.19 231.12 1384.19 230.664C1384.19 230.208 1384.73 230.664 1385.37 231.728C1386.1 232.792 1389.02 237.353 1391.94 241.989ZM275.71 233.248C281.181 237.201 293.673 244.194 306.164 250.426C314.462 254.531 322.212 258.939 323.397 260.079C325.495 262.208 325.586 262.664 325.677 276.041C325.768 283.642 325.95 292.155 326.133 294.967C326.315 299.528 326.042 300.364 323.397 303.784L320.48 307.585L318.747 305.152C317.744 303.86 316.65 302.188 316.285 301.504C315.921 300.82 314.553 298.768 313.094 296.944C311.726 295.119 309.812 292.459 308.9 291.015C307.988 289.571 306.256 287.138 305.07 285.694C302.335 282.198 287.199 261.067 284.464 256.887C281.546 252.403 275.163 244.27 270.331 238.721C268.781 237.049 268.872 236.897 270.878 235.301C272.792 233.856 272.884 233.856 271.698 235.149C270.513 236.517 270.513 236.593 271.972 235.681C272.792 235.073 273.248 234.16 272.975 233.552C272.428 232.336 274.069 232.108 275.71 233.248ZM62.8047 247.994C62.7135 253.923 62.8959 255.367 64.2636 256.431C65.4489 257.419 65.7224 258.483 65.3577 260.307C64.993 261.6 64.7195 288.127 64.7195 319.214V375.688L62.7135 377.589C61.6193 378.729 59.9781 379.489 59.1575 379.337C57.6986 379.109 45.754 367.935 28.3386 350.682C24.1443 346.501 20.2236 342.701 19.5853 342.321C16.6675 340.116 6.45536 329.627 6.45536 328.791C6.45536 327.651 10.1937 321.95 16.1205 314.197C18.3088 311.233 20.6795 308.041 21.3177 306.977C21.8648 305.913 23.0501 304.24 23.8708 303.176C28.7945 296.715 37.5478 284.858 39.3714 282.122C49.8571 266.844 52.6837 262.892 54.9632 260.459C56.3309 258.939 57.5162 257.419 57.5162 257.039C57.5162 256.735 58.1545 255.443 58.8839 254.227C59.9781 252.555 59.9781 251.794 59.2486 251.034C58.2457 250.046 58.7016 249.666 60.5252 249.894C60.8899 249.894 61.1634 249.21 61.1634 248.222C61.1634 246.322 58.0633 244.346 56.3309 245.106C54.4161 246.018 56.1485 244.802 59.3398 242.825C61.0723 241.837 62.6223 240.925 62.7135 240.925C62.8959 240.849 62.8959 244.042 62.8047 247.994ZM1453.48 244.878C1453.48 245.258 1452.85 245.41 1452.12 245.106C1451.39 244.878 1450.2 245.41 1449.38 246.398C1448.01 247.994 1448.01 247.994 1448.01 245.258C1448.01 242.521 1448.01 242.521 1450.75 243.358C1452.3 243.814 1453.48 244.498 1453.48 244.878ZM55.1455 245.79C55.4191 246.398 55.2367 246.93 54.7808 246.93C54.2337 246.93 53.869 246.398 53.869 245.79C53.869 245.182 54.0514 244.65 54.2337 244.65C54.4161 244.65 54.7808 245.182 55.1455 245.79ZM274.434 252.935C277.443 256.659 283.096 264.564 299.417 287.594C300.055 288.431 301.149 289.951 301.97 291.015C308.079 298.768 319.203 315.566 319.203 317.01C319.203 318.682 317.197 321.57 307.167 334.188C304.797 337.304 302.791 339.964 302.791 340.116C302.791 340.344 301.97 341.408 301.058 342.549C300.147 343.689 297.411 347.185 295.04 350.301C284.19 364.515 278.354 371.888 274.251 376.524L272.61 378.425L270.331 376.144C268.051 373.94 268.051 373.712 267.686 356.99C267.048 330.387 266.228 302.872 265.863 292.915C265.68 287.898 265.407 276.421 265.225 267.376L265.042 250.958L267.23 248.678L269.51 246.398L271.242 248.754C272.245 250.046 273.613 251.946 274.434 252.935ZM1243.68 249.21C1244.77 250.882 1245.5 252.479 1245.32 252.783C1245.05 253.163 1244.59 264.336 1244.32 277.713C1243.95 291.091 1243.5 305.304 1243.31 309.257C1243.22 313.209 1242.77 329.475 1242.31 345.361C1241.67 372.724 1241.58 374.32 1239.85 376.296C1237.66 378.729 1236.84 378.957 1236.11 377.056C1235.84 376.372 1234.38 374.7 1233.01 373.484C1231.55 372.192 1229.82 370.292 1229.18 369.304C1228.54 368.239 1226.72 365.655 1225.08 363.603C1210.31 344.449 1206.2 339.052 1201.83 333.276C1199.09 329.627 1195.44 324.915 1193.71 322.71C1191.98 320.506 1190.61 317.922 1190.61 316.858C1190.61 315.794 1192.8 311.841 1195.54 308.117C1198.27 304.316 1200.82 300.744 1201.19 300.136C1201.55 299.528 1202.83 297.78 1203.92 296.259C1205.02 294.739 1210.22 287.518 1215.41 280.298C1231.92 257.191 1234.2 254.151 1236.29 251.946C1237.39 250.73 1238.3 249.362 1238.3 248.906C1238.3 247.918 1240.12 246.17 1241.03 246.17C1241.4 246.17 1242.49 247.538 1243.68 249.21ZM1450.57 250.122C1450.02 251.49 1448.01 251.718 1448.01 250.426C1448.01 249.742 1448.65 249.21 1449.47 249.21C1450.29 249.21 1450.75 249.59 1450.57 250.122ZM1449.2 253.771C1449.47 254.607 1449.29 255.291 1448.83 255.291C1448.38 255.291 1448.01 254.607 1448.01 253.771C1448.01 252.935 1448.2 252.251 1448.38 252.251C1448.56 252.251 1448.92 252.935 1449.2 253.771ZM1456.49 263.804C1462.15 271.709 1471.36 285.238 1475.91 292.155C1477.46 294.663 1483.21 303.024 1488.5 310.701C1493.79 318.378 1498.16 325.371 1498.16 326.131C1498.16 327.575 1494.33 333.124 1492.78 333.884C1492.33 334.112 1490.23 336.468 1488.04 339.128C1485.94 341.713 1483.12 344.905 1481.84 346.273C1480.56 347.565 1476.19 352.354 1472.18 356.914C1458.59 372.344 1452.3 379.185 1451.66 379.185C1451.3 379.185 1450.57 378.349 1450.02 377.284C1449.47 376.22 1448.56 375.384 1448.01 375.384C1447.37 375.384 1447.1 356.914 1447.1 319.138C1447.1 283.718 1447.47 262.892 1448.01 262.892C1448.47 262.892 1449.38 261.524 1449.93 259.851C1450.57 258.179 1451.11 256.811 1451.2 256.811C1451.39 256.811 1453.76 260.003 1456.49 263.804ZM1179.76 266.692C1179.58 269.2 1179.12 270.493 1178.3 270.493C1176.84 270.493 1177.66 273.305 1179.67 275.205C1180.86 276.269 1180.95 278.777 1180.49 290.787C1180.22 298.616 1179.76 314.958 1179.49 327.119C1179.21 339.204 1178.76 355.242 1178.48 362.691C1178.03 376.068 1178.03 376.296 1175.48 379.185L1172.92 382.073L1171.28 379.717C1170.37 378.349 1167.73 375.384 1165.45 373.028C1163.17 370.596 1158.61 365.579 1155.32 361.703C1148.85 354.102 1131.07 333.656 1128.06 330.387C1125.78 327.955 1125.6 324.991 1127.7 323.622C1128.52 323.014 1130.8 320.658 1132.8 318.378C1134.81 316.098 1137.73 312.981 1139.28 311.537C1140.83 310.017 1142.92 307.813 1143.93 306.673C1144.93 305.456 1147.03 303.252 1148.58 301.732C1150.13 300.212 1153.14 296.944 1155.32 294.435C1157.51 291.927 1161.34 287.746 1163.9 285.162C1171.1 277.789 1172.65 276.041 1172.65 275.129C1172.65 274.673 1173.1 274.293 1173.56 274.293C1174.11 274.293 1174.47 273.837 1174.47 273.229C1174.47 272.621 1175.02 271.937 1175.66 271.785C1176.48 271.481 1176.39 271.177 1175.38 270.569C1174.66 270.113 1173.83 269.808 1173.56 269.808C1172.56 269.884 1156.15 286.302 1143.2 300.212C1123.14 321.722 1125.24 319.746 1124.14 318.074C1123.69 317.314 1122.5 316.174 1121.59 315.566C1120.13 314.501 1119.95 312.829 1119.86 300.82L1119.67 287.29L1122.96 284.25C1124.78 282.578 1127.15 280.982 1128.24 280.754C1129.34 280.45 1131.89 279.614 1133.9 278.853C1135.9 278.093 1140.01 276.573 1143.02 275.433C1152.13 272.089 1158.42 269.428 1160.8 268.06C1162.07 267.376 1165.35 266.236 1168.09 265.552C1170.83 264.868 1174.11 264.032 1175.38 263.728C1179.76 262.436 1180.03 262.664 1179.76 266.692ZM335.433 265.552C338.351 266.084 338.442 266.16 336.892 267.528C336.071 268.288 335.707 268.972 336.071 268.972C336.527 268.972 336.436 269.352 335.889 269.808C335.251 270.341 333.792 270.493 332.515 270.189C330.509 269.808 330.236 269.352 330.418 266.692C330.509 264.792 330.874 263.956 331.512 264.336C331.968 264.716 333.792 265.248 335.433 265.552ZM349.566 269.428C355.858 272.317 367.711 277.029 372.999 278.777C381.388 281.59 383.667 282.73 386.859 285.466L389.868 288.051L390.05 301.048L390.232 314.045L387.315 316.858L384.488 319.746L379.929 314.653C377.376 311.917 375.005 309.257 374.641 308.877C374.185 308.421 372.635 306.749 371.085 305.076C367.437 301.124 364.155 297.628 360.417 293.751C358.775 292.003 355.949 288.963 354.034 286.91C352.21 284.858 347.469 280.45 343.639 277.105C337.622 272.089 336.71 270.949 337.439 269.732C339.536 266.464 343.092 266.388 349.566 269.428ZM336.163 274.445C336.983 275.737 339.354 278.549 341.36 280.678C345.828 285.238 366.07 306.825 376.647 318.226C380.659 322.558 383.941 326.511 383.941 326.967C383.941 327.499 381.57 330.539 378.653 333.732C375.826 337 371.996 341.408 370.264 343.461C368.532 345.589 366.434 347.945 365.705 348.781C364.976 349.541 362.149 352.734 359.505 355.774C356.861 358.814 351.846 364.591 348.381 368.544C344.825 372.496 340.995 377.056 339.719 378.577C338.26 380.477 336.983 381.237 336.071 381.009C335.342 380.705 334.704 380.173 334.704 379.717C334.704 379.261 333.974 378.273 333.154 377.513C331.877 376.372 331.604 374.016 331.421 362.995C331.239 355.85 330.874 343.613 330.601 335.86C330.236 328.107 329.689 311.765 329.324 299.528C328.868 279.31 328.959 277.105 330.327 276.117C331.148 275.433 332.06 274.065 332.333 273.077C333.063 270.873 334.157 271.253 336.163 274.445ZM1115.11 291.015C1115.21 293.067 1114.93 294.815 1114.57 294.815C1113.93 294.815 1113.66 288.659 1114.2 287.366C1114.57 286.53 1114.93 287.822 1115.11 291.015ZM399.715 298.616C401.539 300.896 404.183 304.164 405.551 305.913C407.01 307.585 408.56 309.561 409.016 310.169C410.566 312.297 422.328 326.891 426.705 332.287C428.984 335.1 431.355 338.064 431.902 338.976C432.54 339.812 433.452 340.952 433.999 341.408C434.546 341.865 435.002 342.777 435.002 343.461C435.002 344.601 426.522 352.962 410.748 367.403C401.539 375.916 400.353 377.056 398.803 378.957C398.074 379.945 396.889 380.401 396.159 380.173C395.43 379.945 395.065 379.565 395.339 379.337C395.612 379.109 394.883 378.121 393.788 377.056C391.327 375.004 391.418 377.741 392.147 330.995C392.512 305.532 392.786 301.2 394.062 299.832C395.977 297.704 396.889 295.575 395.794 295.575C395.247 295.575 394.974 293.751 394.974 291.547L395.156 287.594L395.703 291.015C396.068 292.991 397.709 296.183 399.715 298.616ZM1109.01 290.787L1111.01 292.535L1108.09 294.891C1106.45 296.183 1105.18 297.552 1105.18 297.856C1105.18 298.236 1104.63 298.996 1103.99 299.528C1102.62 300.744 1097.79 306.597 1088.31 318.758C1084.39 323.775 1079.83 329.247 1078.28 330.919C1076.73 332.591 1075.18 334.568 1074.81 335.252C1074.45 336.012 1073.72 336.392 1072.9 336.164C1071.9 335.86 1071.71 336.164 1072.08 337.228C1072.26 338.064 1072.17 338.9 1071.71 339.128C1070.8 339.584 1070.8 336.088 1071.71 335.328C1072.81 334.492 1072.44 332.515 1070.98 330.767C1069.89 329.399 1069.52 326.207 1069.25 315.49L1069.07 301.884L1071.44 299.604C1073.63 297.552 1077.64 296.031 1085.57 294.055C1089.31 293.143 1100.71 289.647 1101.16 289.267C1102.35 288.279 1107.18 289.191 1109.01 290.787ZM402.907 291.319C401.539 292.307 400.627 293.295 400.901 293.447C401.083 293.675 400.627 293.827 399.898 293.827C399.168 293.827 398.53 293.675 398.53 293.523C398.53 292.915 403.545 289.571 404.457 289.571C405.004 289.571 404.274 290.331 402.907 291.319ZM415.125 292.231C417.678 293.371 420.413 294.055 431.355 296.563C433.908 297.172 435.823 298.084 436.461 299.148C437.008 300.136 438.102 301.504 438.923 302.264C441.02 304.164 441.385 329.171 439.379 331.147C438.558 331.831 437.646 333.428 437.373 334.72L436.643 337L434.728 334.72C433.634 333.504 432.905 332.363 432.996 332.211C433.178 332.059 432.358 330.995 431.081 329.931C429.896 328.791 422.875 320.43 415.581 311.309L402.268 294.663L404.73 292.839C407.648 290.787 411.204 290.559 415.125 292.231ZM1113.2 296.335C1113.11 296.563 1113.84 297.856 1115.02 299.148C1117.12 301.58 1117.12 301.884 1117.58 329.171C1117.76 344.373 1118.12 360.791 1118.31 365.731L1118.67 374.7L1115.75 377.665C1114.2 379.261 1112.74 380.629 1112.47 380.629C1112.2 380.705 1111.28 379.793 1110.46 378.577C1109.55 377.437 1105.91 373.712 1102.26 370.368C1091.59 360.487 1076.55 346.197 1075.27 344.829C1074.27 343.841 1074.27 343.233 1075.18 341.789C1075.82 340.8 1076.55 339.888 1076.82 339.66C1077.18 339.432 1082.84 332.439 1089.49 324.079C1096.06 315.718 1103.26 306.901 1105.36 304.468C1107.55 302.036 1109.1 299.832 1108.82 299.68C1108.55 299.452 1109.1 298.92 1110.01 298.54C1110.83 298.084 1111.56 297.248 1111.56 296.639C1111.56 295.955 1112.01 295.575 1112.56 295.727C1113.11 295.879 1113.38 296.183 1113.2 296.335ZM73.0168 298.616C73.0168 298.996 72.1962 299.376 71.1932 299.376C70.1903 299.376 69.3696 298.996 69.3696 298.616C69.3696 298.16 70.1903 297.856 71.1932 297.856C72.1962 297.856 73.0168 298.16 73.0168 298.616ZM133.834 302.568C133.652 303.556 133.469 302.948 133.469 301.276C133.378 299.604 133.56 298.844 133.834 299.528C134.016 300.288 134.016 301.656 133.834 302.568ZM1062.96 301.808C1062.69 302.416 1062.41 302.188 1062.41 301.352C1062.32 300.516 1062.59 300.06 1062.87 300.364C1063.14 300.592 1063.23 301.276 1062.96 301.808ZM1057.12 303.784C1059.68 305.989 1060.32 307.737 1058.67 307.737C1056.67 307.737 1053.39 311.005 1035.42 330.919C1029.04 337.988 1023.3 343.917 1022.75 343.993C1022.2 344.145 1020.93 343.689 1019.92 343.005C1018.19 341.941 1018.1 340.952 1018.1 327.271V312.677L1020.38 310.473C1022.11 308.877 1024.3 307.965 1028.68 307.205C1031.87 306.597 1036.97 305.608 1040.07 305C1043.08 304.468 1047 303.48 1048.74 302.872C1053.11 301.276 1054.39 301.352 1057.12 303.784ZM460.897 303.556C463.45 304.164 469.012 305.304 473.298 306.141C477.583 306.901 482.051 307.813 483.327 308.041C484.604 308.269 486.975 309.561 488.707 310.853L491.807 313.209L491.898 327.575C491.989 337.684 491.716 342.017 490.986 342.245C490.348 342.473 490.075 341.941 490.348 340.952C490.713 339.356 490.713 339.356 488.798 341.18C486.154 343.689 485.06 343.613 482.871 340.648C480.501 337.456 464.909 320.278 459.165 314.425C456.703 311.917 454.241 309.181 453.694 308.345C453.056 307.357 452.144 306.977 450.776 307.205C449.591 307.357 448.679 307.129 448.679 306.673C448.679 306.141 450.047 305.837 451.87 305.913C455.7 306.065 457.797 304.468 455.335 303.252C452.873 302.112 455.426 302.188 460.897 303.556ZM135.931 306.673C135.931 307.281 136.569 307.965 137.39 308.269C138.484 308.573 138.575 308.877 137.664 309.333C136.752 309.789 137.116 310.397 139.031 311.613C140.49 312.525 142.223 314.349 142.952 315.642C143.59 316.934 145.14 319.366 146.326 321.038C147.511 322.71 149.335 325.447 150.429 327.119C151.432 328.791 153.711 331.983 155.535 334.188C157.267 336.468 158.726 338.444 158.726 338.596C158.726 338.748 163.832 346.273 170.124 355.242C176.415 364.211 181.521 371.812 181.521 372.192C181.521 372.496 181.977 373.18 182.615 373.712C183.254 374.244 185.077 376.6 186.718 379.033C192.372 387.318 192.189 386.482 188.816 389.446L185.715 392.106H162.009H138.302L134.837 389.294L131.372 386.482V350.225C131.372 318.986 131.554 313.893 132.74 313.057C133.469 312.525 134.108 311.613 134.108 310.929C134.108 309.941 133.834 310.017 132.284 311.157C131.281 311.917 130.46 312.221 130.46 311.765C130.46 311.385 131.281 310.397 132.284 309.637C133.287 308.877 134.108 307.433 134.108 306.445C134.108 305.38 134.472 304.848 135.019 305.076C135.566 305.304 135.931 306.065 135.931 306.673ZM326.498 308.497C326.498 308.877 325.768 309.561 324.856 309.941C323.58 310.473 323.124 310.397 323.124 309.637C323.124 309.105 323.671 308.801 324.4 309.029C325.039 309.257 325.586 309.029 325.586 308.573C325.586 308.117 325.768 307.737 326.042 307.737C326.315 307.737 326.498 308.041 326.498 308.497ZM447.767 308.497C447.767 308.877 447.585 309.257 447.402 309.257C447.129 309.257 446.673 308.877 446.399 308.497C446.126 308.041 446.308 307.737 446.764 307.737C447.311 307.737 447.767 308.041 447.767 308.497ZM1186.33 308.573C1186.33 308.041 1186.69 307.813 1187.24 308.117C1187.69 308.345 1187.88 309.029 1187.6 309.561C1186.96 310.929 1183.59 310.169 1183.59 308.725C1183.59 307.737 1183.86 307.737 1184.96 308.497C1185.96 309.181 1186.33 309.181 1186.33 308.573ZM504.481 311.309C503.843 311.461 502.931 312.373 502.384 313.285L501.29 314.882L503.843 313.361C506.487 311.689 508.675 311.765 525.544 313.893C531.653 314.653 533.112 315.11 536.212 317.542L539.859 320.278L540.315 331.071L540.771 341.789L538.491 343.309C537.215 344.145 536.212 345.209 536.212 345.665C536.212 347.261 534.662 346.501 531.106 343.157C519.982 332.668 499.193 315.338 497.734 315.338C496.822 315.338 496.093 314.882 496.093 314.273C496.093 312.753 497.643 312.069 498.19 313.209C498.463 313.893 499.284 313.665 500.743 312.449C501.928 311.537 503.478 310.777 504.299 310.853C505.211 310.853 505.302 311.005 504.481 311.309ZM1010.71 312.601C1013.63 314.197 1013.81 314.501 1012.45 315.414C1011.62 316.022 1010.9 316.326 1010.71 316.098C1010.62 315.87 1009.16 316.782 1007.43 318.074C1004.15 320.582 983.177 339.128 978.527 343.537C976.065 345.969 971.141 348.325 972.6 346.425C972.873 346.045 972.235 344.677 971.141 343.461C969.317 341.256 969.226 340.496 969.591 330.463C970.047 320.658 970.229 319.594 972.144 317.922C975.062 315.338 982.265 313.361 991.109 312.753C995.304 312.449 999.589 311.917 1000.68 311.537C1004.06 310.397 1007.43 310.701 1010.71 312.601ZM1062.32 312.449C1062.32 312.905 1062.96 313.893 1063.78 314.653C1065.33 316.098 1065.6 320.202 1066.06 358.434C1066.24 377.36 1066.24 377.665 1064.33 379.033C1063.23 379.869 1062.32 381.085 1062.32 381.845C1062.32 382.833 1060.95 382.073 1057.58 379.337C1054.94 377.284 1048.64 372.724 1043.63 369.304C1038.61 365.807 1031.87 360.943 1028.68 358.434L1022.75 353.874L1024.57 351.366C1025.48 349.997 1033.51 341.104 1042.26 331.603C1051.01 322.102 1058.4 313.969 1058.58 313.513C1059.59 311.005 1062.32 310.245 1062.32 312.449ZM453.603 316.478C459.529 322.862 476.124 340.876 478.312 343.309C479.315 344.449 481.686 347.033 483.601 349.085C485.425 351.138 486.975 353.19 486.975 353.646C486.975 354.102 483.783 356.686 479.954 359.422C462.538 371.812 457.979 375.156 453.511 378.729L448.679 382.529L445.852 380.325L443.026 378.045L443.664 354.482C444.029 341.484 444.211 327.803 444.12 324.003C444.029 317.998 444.302 316.706 446.126 314.349C447.311 312.829 448.497 311.689 448.77 311.765C449.135 311.841 451.323 313.969 453.603 316.478ZM1251.06 312.297C1251.06 312.677 1250.88 313.057 1250.7 313.057C1250.43 313.057 1249.97 312.677 1249.7 312.297C1249.42 311.841 1249.61 311.537 1250.06 311.537C1250.61 311.537 1251.06 311.841 1251.06 312.297ZM1255.9 317.77C1257.9 319.974 1260.18 323.47 1267.11 334.34C1268.11 335.784 1269.12 337.152 1269.39 337.38C1269.66 337.608 1270.49 338.672 1271.21 339.812C1273.59 343.537 1278.24 350.682 1280.52 354.102C1281.79 356.002 1284.16 359.575 1285.8 362.083C1287.35 364.591 1289.36 367.479 1290.27 368.544C1291.09 369.608 1294.01 373.712 1296.65 377.665C1299.39 381.617 1301.85 384.961 1302.31 385.113C1303.77 385.645 1303.04 386.786 1299.66 389.446L1296.2 392.03L1273.77 392.106H1251.43L1248.51 389.598L1245.5 387.014L1245.96 376.828C1246.23 371.204 1246.69 359.27 1246.96 350.301C1247.78 326.055 1248.24 321.266 1249.79 319.746C1250.61 319.062 1251.34 317.846 1251.52 317.086C1251.7 316.326 1251.88 315.642 1251.88 315.49C1252.25 314.729 1254.07 315.718 1255.9 317.77ZM561.925 316.782C566.119 317.39 567.669 318.074 569.857 320.05C572.593 322.482 572.593 322.71 572.684 330.691C572.684 335.556 572.319 338.976 571.772 339.28C571.225 339.584 570.131 341.104 569.31 342.777L567.943 345.741L564.569 341.789C550.162 324.763 547.609 321.722 547.609 321.266C547.609 321.038 547.336 320.582 546.971 320.278C546.606 319.974 547.427 318.91 548.795 317.922C551.53 315.946 554.083 315.718 561.925 316.782ZM961.385 317.998C964.394 320.278 964.485 321.418 961.567 323.698C960.291 324.687 959.288 325.827 959.288 326.283C959.288 326.815 958.102 328.335 956.735 329.779C955.276 331.223 952.358 335.024 950.17 338.14C945.519 344.677 941.963 348.097 941.963 345.817C941.963 345.057 941.143 343.841 940.14 343.081C938.134 341.56 937.678 339.964 939.501 340.876C940.231 341.332 940.231 341.104 939.41 340.192C938.134 338.9 938.772 337 940.231 337.76C940.687 338.064 941.052 337.836 941.052 337.456C941.052 337 940.778 336.62 940.413 336.62C939.957 336.62 939.775 333.352 939.866 329.399C940.049 322.634 940.231 321.95 942.602 319.594C945.428 316.706 946.705 316.326 953.817 316.25C957.92 316.174 959.288 316.478 961.385 317.998ZM602.5 320.05C605.418 322.558 605.418 322.634 605.6 331.375C605.782 339.888 605.691 340.344 603.412 342.853C602.044 344.297 600.95 345.969 601.041 346.577C601.041 347.185 601.406 347.033 601.953 346.121L602.773 344.601L602.682 346.121C602.591 348.249 603.776 351.138 604.597 350.682C605.053 350.453 605.144 350.986 604.87 351.822C604.415 353.114 603.776 352.582 601.041 348.933C597.576 344.145 591.741 336.696 584.446 327.803L580.069 322.33L582.075 320.886C585.54 318.226 587.546 317.694 593.746 317.618C599.308 317.618 599.856 317.77 602.5 320.05ZM638.698 320.05L641.798 322.558L642.254 338.368C642.619 351.898 642.528 354.254 641.343 354.634C640.613 354.862 640.431 355.242 640.887 355.546C641.343 355.774 641.89 358.662 642.163 361.855C642.437 366.795 642.254 367.631 641.251 366.719C639.975 365.655 639.61 357.37 640.613 351.822C640.887 350.377 640.704 348.629 640.248 348.021C639.519 347.109 639.063 347.109 637.513 348.325C635.233 349.997 634.869 352.734 636.966 352.126C638.698 351.518 638.698 352.126 637.057 353.266C635.963 354.026 635.598 353.646 634.595 351.29C634.048 349.693 632.316 347.261 630.948 345.893C629.489 344.525 627.665 342.321 626.845 340.952C626.024 339.66 622.468 335.024 619.095 330.691C615.63 326.435 612.803 322.786 612.803 322.558C612.803 322.33 614.08 321.19 615.63 319.898C618.456 317.694 618.821 317.618 627.118 317.618C635.507 317.618 635.689 317.694 638.698 320.05ZM679.091 320.05L682.1 322.482V337.38C682.1 351.594 682.009 352.43 680.185 353.798C678.818 354.786 678.362 355.926 678.635 357.674C678.818 359.042 678.635 360.183 678.27 360.183C676.72 360.183 677.632 363.983 679.821 366.111C682.009 368.239 682.1 368.848 682.1 377.741V387.09L679.182 389.598C676.264 392.106 676.173 392.106 667.876 392.106H659.396L656.661 389.294C653.743 386.406 653.743 386.406 657.208 382.985C661.493 378.805 675.444 363.299 675.991 362.235C676.72 360.563 675.444 357.75 671.705 352.962C670.064 350.834 666.508 346.273 663.682 342.701C660.946 339.128 656.205 333.124 653.105 329.247L647.543 322.254L650.734 319.898C653.925 317.618 653.925 317.618 664.958 317.618H676.082L679.091 320.05ZM717.569 320.278L720.304 322.558L720.487 335.708L720.578 348.857L718.116 351.062C716.748 352.278 715.928 353.57 716.201 354.026C716.566 354.482 716.293 354.71 715.654 354.482C714.378 354.026 710.183 349.009 697.054 331.983L689.577 322.33L692.95 319.898L696.233 317.542L705.533 317.77C714.56 317.998 715.016 318.074 717.569 320.278ZM749.482 320.278C752.035 322.482 752.126 322.938 752.673 331.831C753.312 340.42 753.221 341.18 751.488 342.473C749.117 344.297 748.023 347.945 749.573 348.781C750.212 349.161 750.85 350.377 751.032 351.594C751.306 353.57 751.215 353.646 749.938 352.278C749.209 351.442 748.662 350.301 748.662 349.769C748.662 349.237 748.023 348.781 747.203 348.781C746.473 348.781 746.108 348.477 746.382 348.021C746.656 347.641 745.105 345.437 743.008 343.233C740.82 340.952 737.446 336.848 735.44 334.036C733.434 331.223 730.517 327.499 728.875 325.675L725.958 322.406L728.693 320.43C732.158 317.922 733.252 317.694 740.729 317.846C746.2 317.998 747.111 318.302 749.482 320.278ZM806.834 320.05L809.661 322.558L805.102 328.639C802.64 331.983 798.628 337.608 796.258 341.028C791.699 347.869 786.592 353.342 784.769 353.342C784.131 353.342 782.398 352.202 780.939 350.834C778.477 348.705 777.292 347.337 773.736 342.625C773.28 341.941 771.73 340.04 770.454 338.444C769.177 336.848 765.803 332.515 762.977 328.943L757.962 322.406L760.606 320.05L763.341 317.618H783.675H803.917L806.834 320.05ZM832.365 318.682C833.733 319.29 835.465 320.354 836.286 321.114C837.744 322.482 837.38 323.09 831.544 331.299C828.171 336.088 824.979 340.42 824.432 340.952C823.885 341.484 822.973 342.777 822.335 343.841C821.788 344.905 820.967 345.741 820.511 345.741C820.056 345.741 818.961 347.185 817.958 348.933L816.226 352.202V349.769C816.135 348.477 815.861 346.881 815.588 346.273C815.223 345.437 815.679 345.285 817.411 345.513C818.87 345.741 819.782 345.589 819.782 345.057C819.782 344.525 819.326 344.373 818.87 344.601C818.323 344.905 818.141 344.373 818.323 343.309C818.505 342.321 817.958 340.876 816.955 339.964C815.041 338.292 814.767 336.164 815.041 327.879C815.223 323.09 815.497 322.33 818.05 320.05C820.42 317.922 821.423 317.618 825.344 317.618C827.806 317.618 830.997 318.074 832.365 318.682ZM868.199 320.202L871.572 322.406L869.384 324.383C868.199 325.447 867.196 326.587 867.196 326.815C867.196 327.119 863.731 332.059 859.445 337.912C855.16 343.689 851.148 349.389 850.601 350.682L849.507 352.962L848.868 351.062L848.23 349.161L848.139 351.214C848.048 352.354 847.501 353.722 846.862 354.254C846.133 354.786 845.404 355.774 845.039 356.382C844.765 357.066 844.492 356.686 844.492 355.47C844.401 354.33 843.945 352.506 843.489 351.366C842.668 349.541 842.668 349.465 843.945 350.301C844.674 350.834 845.404 351.974 845.404 352.886C845.495 353.798 845.86 353.342 846.133 351.822C846.771 349.009 845.586 345.513 844.309 346.197C843.489 346.577 843.306 342.853 843.306 329.779V322.558L846.68 320.05C849.963 317.466 850.145 317.466 857.439 317.77C864.096 317.998 865.281 318.226 868.199 320.202ZM900.294 320.202C902.209 321.646 903.303 323.014 902.847 323.242C902.391 323.546 899.2 327.727 895.826 332.668C892.453 337.532 888.714 342.701 887.62 344.145C886.435 345.589 885.705 347.033 885.979 347.413C886.252 347.717 885.796 348.021 885.067 348.021C884.246 348.021 883.335 349.085 882.879 350.453C881.967 353.418 879.961 354.178 879.961 351.594C879.961 350.606 879.14 349.161 878.228 348.477C876.496 347.185 876.405 347.185 876.04 348.933C875.858 349.921 875.675 344.297 875.584 336.468V322.178L879.323 319.898C882.696 317.846 883.699 317.618 889.991 317.618C896.647 317.618 897.103 317.77 900.294 320.202ZM929.563 319.898L932.663 322.254L926.372 331.071C922.907 335.936 919.442 340.572 918.53 341.332C917.709 342.093 916.889 343.309 916.798 343.917C916.706 344.601 915.977 345.665 915.339 346.349C914.609 347.109 913.515 348.629 912.877 349.845C911.965 351.67 911.6 351.898 910.871 350.986C910.324 350.301 910.506 349.693 911.236 349.161C912.603 348.325 911.874 344.905 909.959 343.005C909.139 342.169 908.865 338.976 909.047 332.287C909.23 323.698 909.503 322.406 911.236 320.582C913.606 318.074 914.518 317.846 921.174 317.694C925.733 317.618 926.736 317.922 929.563 319.898ZM1372.42 320.05C1372.15 321.57 1371.88 322.026 1371.6 321.19C1371.42 320.506 1370.87 320.05 1370.42 320.278C1369.14 320.962 1369.42 320.126 1371.06 318.834C1372.97 317.238 1372.97 317.238 1372.42 320.05ZM259.663 323.775C262.216 326.055 261.942 323.47 263.219 365.503L263.857 387.166L260.483 389.674L257.109 392.106H234.497H211.884L208.055 389.142C204.954 386.786 204.499 386.025 205.502 385.493C206.231 385.189 208.419 382.681 210.334 379.945C212.249 377.208 215.167 373.408 216.808 371.432C218.449 369.456 219.817 367.631 219.817 367.479C219.817 367.327 222.005 364.439 224.649 361.095C229.573 354.71 236.959 345.133 238.509 342.853C239.056 342.169 240.697 340.04 242.156 338.14C245.256 334.188 245.621 333.656 249.724 327.955C251.365 325.599 253.189 323.546 253.645 323.242C254.192 323.014 255.012 321.874 255.559 320.81C256.471 318.986 256.654 318.91 257.018 320.278C257.201 321.114 258.386 322.71 259.663 323.775ZM1013.9 326.055C1014.54 326.283 1015 335.1 1015.36 352.962L1015.82 379.565L1013.08 382.149L1010.44 384.733L1004.24 380.249C1000.87 377.741 994.757 373.484 990.745 370.824C986.824 368.087 982.903 365.351 982.083 364.743C981.262 364.135 978.709 362.159 976.338 360.335C973.968 358.586 972.053 356.838 972.053 356.534C972.053 356.23 979.256 349.465 988.1 341.56C996.945 333.58 1005.42 325.903 1007.07 324.383L1009.89 321.646L1011.44 323.698C1012.26 324.839 1013.36 325.903 1013.9 326.055ZM508.402 329.779C512.87 333.732 521.349 341.18 527.276 346.349C533.203 351.442 538.035 356.078 537.944 356.61C537.944 357.066 535.391 359.27 532.291 361.475C529.191 363.603 520.62 369.684 513.234 374.852L499.831 384.429L497.369 382.453C494.634 380.325 492.992 374.548 493.904 370.368C494.178 369.152 494.451 358.966 494.543 347.869L494.725 327.575L496.913 325.675C498.19 324.611 498.737 323.698 498.281 323.698C497.825 323.698 498.099 323.394 498.828 322.938C499.557 322.558 500.196 322.33 500.196 322.406C500.287 322.482 503.934 325.827 508.402 329.779ZM1372.61 324.763L1375.07 327.423V356.99V386.634L1371.42 389.37L1367.77 392.106H1345.16C1322.82 392.106 1322.46 392.106 1320.54 390.358C1319.54 389.446 1317.99 388.23 1317.17 387.622C1315.8 386.71 1315.8 386.482 1317.44 384.961C1318.99 383.517 1328.48 371.964 1330.85 368.696C1331.39 368.011 1337.96 359.727 1345.44 350.453C1353 341.104 1359.75 332.515 1360.48 331.451C1361.21 330.311 1362.39 329.095 1363.03 328.791C1363.58 328.487 1364.13 327.879 1364.13 327.423C1364.13 326.283 1367.96 322.178 1369.05 322.178C1369.6 322.178 1371.15 323.394 1372.61 324.763ZM323.489 324.611C323.215 325.219 322.942 324.991 322.942 324.155C322.85 323.318 323.124 322.862 323.397 323.166C323.671 323.394 323.762 324.079 323.489 324.611ZM1190.06 327.879C1191.52 329.095 1194.08 331.983 1195.72 334.264C1197.27 336.544 1199.27 339.204 1200 340.192C1200.73 341.104 1204.84 346.501 1209.12 351.974C1213.32 357.522 1219.42 365.503 1222.62 369.684C1225.9 373.864 1230.09 379.337 1232.01 381.845C1234.01 384.353 1235.56 386.71 1235.56 387.166C1235.56 387.546 1234.1 388.838 1232.46 389.978L1229.27 392.106H1208.76H1188.15L1184.5 389.37L1180.86 386.558L1181.22 372.04C1181.49 364.059 1181.95 351.898 1182.31 345.057L1182.95 332.515L1185.6 330.691C1188.15 328.943 1189.06 326.739 1187.24 326.739C1186.78 326.739 1186.42 325.827 1186.42 324.611C1186.51 323.014 1186.6 322.938 1186.96 324.079C1187.24 324.915 1188.61 326.587 1190.06 327.879ZM70.9197 326.359C70.9197 326.967 70.555 327.499 70.0991 327.499C69.1873 327.499 69.0961 326.435 70.0079 325.751C70.8285 324.991 70.9197 325.067 70.9197 326.359ZM321.939 327.803C321.939 328.335 323.124 329.703 324.492 330.843L327.136 332.896L327.774 355.85C328.048 368.468 328.595 380.401 328.868 382.377C329.415 385.721 329.324 386.025 325.677 388.99L321.847 392.106H300.602H279.449L276.987 389.978C274.069 387.47 273.978 386.634 276.257 383.897C277.169 382.757 279.357 379.945 281.09 377.665C285.558 371.812 298.961 354.254 301.423 351.062C302.517 349.617 305.708 345.513 308.444 341.941C311.088 338.368 314.918 333.352 316.924 330.767C320.297 326.435 321.939 325.447 321.939 327.803ZM551.712 333.96C551.712 334.416 553.445 336.772 555.633 339.052C567.487 352.126 570.86 356.306 570.86 358.054C570.86 358.738 566.575 363.831 561.286 369.304C555.998 374.776 551.712 379.641 551.712 380.021C551.712 380.477 551.257 380.553 550.709 380.325C550.162 380.021 549.524 380.477 549.251 381.313C548.795 382.909 546.242 384.277 546.242 382.985C546.242 382.529 546.698 382.225 547.153 382.225C548.704 382.225 548.156 378.273 546.515 377.208C545.056 376.372 544.874 374.7 544.692 363.071C544.6 355.85 544.236 346.729 543.78 342.929C543.05 336.164 543.05 335.784 545.147 333.58C546.971 331.603 547.062 331.223 545.877 330.843C545.056 330.615 544.418 329.627 544.418 328.791C544.418 327.423 544.874 327.575 548.065 330.159C550.071 331.755 551.712 333.504 551.712 333.96ZM1440.08 330.539C1439.81 331.451 1440.26 332.744 1441.27 333.656C1442.91 335.176 1443 336.924 1443.09 360.715V386.177L1439.44 389.142L1435.7 392.106H1413.27H1390.75L1387.83 389.37L1385.01 386.634L1387.2 384.581C1388.38 383.517 1391.85 379.869 1394.76 376.524C1401.15 369.228 1430.87 337.228 1434.34 333.884C1435.61 332.668 1437.25 331.755 1437.8 331.907C1438.44 332.059 1438.89 331.375 1438.89 330.159C1438.89 329.095 1439.26 328.335 1439.72 328.563C1440.17 328.791 1440.35 329.703 1440.08 330.539ZM965.214 329.779C965.488 330.159 965.123 330.539 964.302 330.539C963.482 330.539 963.117 330.159 963.391 329.779C963.664 329.323 964.12 329.019 964.302 329.019C964.485 329.019 964.941 329.323 965.214 329.779ZM77.5759 334.188C79.8554 336.544 82.8643 339.888 84.1408 341.56C85.5085 343.233 88.2439 346.501 90.3411 348.781C92.347 351.062 94.2618 353.494 94.6265 354.102C94.9912 354.71 95.6295 355.546 95.9942 356.002C97.1796 357.142 103.836 364.971 110.218 372.724C113.41 376.448 117.33 381.237 119.154 383.289L122.345 387.014L119.336 389.598L116.419 392.106H95.8119H75.2052L71.8315 389.218L68.4578 386.406V360.639C68.3667 335.556 68.4578 334.872 70.2814 333.808C71.2844 333.2 72.105 332.059 72.105 331.223C72.105 328.943 73.1992 329.475 77.5759 334.188ZM648.819 333.428C648.09 334.036 646.54 332.668 646.54 331.451C646.54 330.463 646.722 330.463 647.816 331.755C648.546 332.515 649.002 333.352 648.819 333.428ZM731.337 336.544C731.337 336.924 732.431 338.368 733.89 339.812C735.258 341.256 737.173 343.765 738.176 345.437C739.179 347.033 740.273 348.553 740.546 348.781C742.461 350.073 749.209 360.031 748.844 360.943C748.297 362.159 741.549 369.684 735.805 375.46C733.799 377.437 732.249 379.337 732.249 379.717C732.249 380.097 730.79 381.465 729.058 382.909C727.325 384.277 725.866 385.037 725.866 384.581C725.866 384.201 726.322 383.593 726.778 383.365C728.328 382.529 727.781 378.805 725.958 377.741C724.316 376.752 724.225 375.46 724.134 358.814C724.043 346.349 724.316 340.648 725.046 339.888C725.958 339.052 725.775 338.976 724.499 339.432C723.131 339.812 722.949 339.66 723.405 338.596C723.769 337.836 724.316 336.316 724.59 335.252C725.593 331.375 725.775 331.299 728.602 333.656C730.061 334.948 731.337 336.24 731.337 336.544ZM964.667 333.656C966.947 336.088 967.22 337.456 966.217 342.701C965.853 344.601 965.579 351.214 965.488 357.522C965.488 363.755 965.123 370.368 964.758 372.116C964.394 373.94 964.485 375.156 964.85 374.928C966.491 374.092 965.579 376.752 963.755 378.121C962.752 378.881 962.114 380.097 962.297 380.857C963.208 383.669 961.02 381.997 955.732 375.916C952.723 372.496 948.711 368.011 946.796 365.959C944.881 363.907 942.693 361.247 941.781 360.031C940.14 357.598 939.866 357.978 951.081 343.917C959.561 333.276 961.202 331.299 961.841 331.375C962.205 331.375 963.482 332.439 964.667 333.656ZM1442.63 332.591C1443.82 333.808 1443.73 333.884 1442.36 332.896C1440.81 331.907 1440.35 331.299 1441.08 331.299C1441.27 331.299 1442 331.907 1442.63 332.591ZM760.15 333.352C762.886 336.316 771.457 346.501 771.457 346.805C771.457 347.033 773.462 349.845 776.016 353.114C778.477 356.382 780.575 359.651 780.575 360.411C780.575 361.627 778.204 364.439 767.445 375.916C765.347 378.045 762.977 380.705 762.065 381.769C760.059 384.201 758.691 384.277 758.691 382.073C758.691 381.161 758.053 379.869 757.232 379.109C756.047 378.045 755.865 374.928 755.865 357.902C755.865 339.584 755.956 337.912 757.506 336.848C758.418 336.24 758.691 335.936 758.053 336.24C757.324 336.544 756.959 335.936 757.141 334.34C757.324 331.755 758.327 331.451 760.15 333.352ZM617.909 338.596C618.73 340.42 619.733 341.941 620.098 341.941C621.101 341.941 633.775 359.118 633.775 360.563C633.775 361.247 630.127 365.731 625.568 370.52C621.101 375.308 616.906 380.021 616.359 380.857C615.356 382.453 615.265 382.453 614.171 380.249C613.624 379.033 612.53 377.665 611.8 377.132C610.068 375.916 610.068 341.713 611.8 339.052C612.438 338.064 612.985 336.24 612.985 335.024C613.077 332.896 613.168 332.896 614.718 334.036C615.63 334.72 617.089 336.772 617.909 338.596ZM811.211 337.532C811.758 338.292 811.576 338.292 810.39 337.456C808.293 336.088 808.384 337.532 810.573 338.976C811.941 340.04 812.123 340.8 811.576 343.689C811.211 345.665 811.12 353.418 811.393 360.943C811.758 373.636 811.667 374.852 810.117 376.372C807.108 379.337 806.014 381.313 807.29 381.693C808.02 381.997 808.111 382.149 807.29 382.149C806.743 382.225 805.558 381.237 804.555 380.021C803.643 378.805 799.996 374.472 796.44 370.292C792.793 366.187 789.601 362.083 789.237 361.095C788.781 359.651 790.331 356.99 796.622 348.173C800.999 342.017 805.649 336.012 806.926 334.872L809.296 332.744L809.843 334.644C810.208 335.632 810.755 336.924 811.211 337.532ZM839.568 336.316C840.571 338.596 840.662 341.484 840.024 349.161C839.659 354.558 839.386 362.767 839.477 367.403C839.659 374.092 839.477 375.992 838.292 377.056C837.289 377.969 837.015 379.261 837.289 381.313L837.836 384.277L835.374 382.301C834.097 381.237 832.182 379.261 831.18 377.969C830.177 376.6 826.985 372.952 824.067 369.76C815.77 360.639 815.77 361.019 823.064 350.453C832.365 337.076 836.012 332.744 837.471 333.124C837.927 333.2 838.93 334.644 839.568 336.316ZM870.752 333.732C870.66 334.264 871.299 336.012 872.119 337.684C873.031 339.28 873.487 341.104 873.214 341.713C872.94 342.321 872.666 350.225 872.666 359.346C872.575 374.852 872.484 376.068 870.752 377.284C868.837 378.805 868.381 381.921 870.205 382.453C870.752 382.605 871.025 382.985 870.752 383.289C870.113 383.821 865.372 380.553 865.372 379.641C865.372 379.413 862.545 375.992 858.989 372.192C855.525 368.315 851.969 363.983 851.057 362.615C849.416 360.183 849.416 360.107 852.06 356.154C859.263 345.361 865.007 337.684 868.016 334.872C870.569 332.591 871.025 332.363 870.752 333.732ZM903.212 334.568C902.847 335.708 903.303 337 904.488 338.216C906.13 339.964 906.221 340.724 905.582 345.817C905.127 348.933 904.762 356.99 904.762 363.831C904.762 374.168 904.488 376.448 903.303 377.589C902.482 378.349 901.844 379.489 901.844 380.173C901.844 382.301 900.203 381.617 897.741 378.577C894.823 374.928 886.708 365.351 885.614 364.287C882.423 361.247 882.423 360.259 886.161 355.014C888.167 352.202 890.72 348.553 891.814 346.957C892.908 345.285 894.732 342.777 896.009 341.256C897.194 339.736 898.197 338.216 898.197 337.76C898.197 337.152 902.665 333.048 903.485 332.896C903.577 332.82 903.485 333.58 903.212 334.568ZM387.132 336.468C387.315 337.38 387.771 338.52 388.135 339.052C388.956 340.116 388.774 368.391 387.953 379.489C387.406 386.558 387.132 387.242 384.579 389.598L381.844 392.106H363.517H345.281L342.272 389.674C340.63 388.306 339.263 387.014 339.263 386.634C339.263 386.33 342.272 382.757 345.919 378.653C349.657 374.548 354.581 368.772 357.043 365.883C359.414 362.919 362.696 359.194 364.246 357.522C365.887 355.85 367.802 353.57 368.623 352.506C369.443 351.442 370.72 350.073 371.358 349.465C371.996 348.857 374.094 346.501 375.917 344.221C377.741 341.941 380.111 339.28 381.206 338.292C382.209 337.38 382.847 336.62 382.573 336.62C382.391 336.62 382.847 335.936 383.667 335.1C385.4 333.428 386.494 333.884 387.132 336.468ZM1127.06 336.24C1127.06 336.544 1128.61 338.444 1130.52 340.42C1132.35 342.397 1134.54 344.829 1135.27 345.741C1135.99 346.729 1138.18 349.161 1140.1 351.138C1141.92 353.19 1143.47 355.014 1143.47 355.242C1143.47 355.47 1145.84 358.358 1148.85 361.551C1151.77 364.743 1157.97 371.736 1162.53 377.056L1170.92 386.71L1167.45 389.37L1163.99 392.03L1146.21 392.106H1128.34L1124.96 389.218C1122.77 387.394 1121.59 385.645 1121.68 384.505C1121.95 380.173 1120.59 342.245 1120.13 341.028C1119.86 340.268 1120.4 339.432 1121.41 338.976C1122.41 338.52 1123.41 337.152 1123.78 335.86C1124.23 333.732 1124.41 333.58 1125.69 334.568C1126.42 335.252 1127.06 336.012 1127.06 336.24ZM653.925 338.216C655.658 340.344 657.846 343.157 658.758 344.449C659.761 345.817 662.77 349.769 665.505 353.19C668.332 356.914 670.247 360.107 669.973 360.867C669.608 362.235 652.011 381.313 651.099 381.389C650.825 381.465 649.458 380.249 648.09 378.805L645.537 376.144V358.206C645.537 342.321 645.719 340.04 647.087 338.824C647.999 337.988 648.363 337.152 648.09 336.848C647.452 336.316 649.093 334.34 650.187 334.34C650.461 334.34 652.193 336.088 653.925 338.216ZM588.458 342.853C598.761 355.926 601.588 359.803 601.132 360.943C600.859 361.551 596.755 366.111 592.014 371.128L583.261 380.097L580.708 377.589L578.246 375.004L578.155 358.434V341.865L580.525 339.204C581.893 337.76 583.078 336.62 583.17 336.62C583.352 336.62 585.723 339.432 588.458 342.853ZM699.515 344.981C701.339 347.261 704.439 351.366 706.536 354.102C708.633 356.838 710.366 359.651 710.366 360.487C710.366 361.703 705.26 367.403 694.318 378.349L692.403 380.249L690.033 378.045L687.662 375.764L687.48 359.803C687.388 350.986 687.48 343.309 687.571 342.701C687.662 342.093 688.847 340.572 690.124 339.28L692.586 337L694.501 338.9C695.503 339.964 697.783 342.701 699.515 344.981ZM438.649 338.52C438.649 339.128 438.467 339.66 438.284 339.66C438.102 339.66 437.737 339.128 437.373 338.52C437.099 337.912 437.281 337.38 437.737 337.38C438.284 337.38 438.649 337.912 438.649 338.52ZM934.669 358.434V374.624L932.025 377.665L929.472 380.629L928.195 378.577C927.557 377.437 925.916 375.46 924.548 374.244C921.539 371.432 914.153 362.463 913.515 360.943C913.059 359.803 919.168 350.529 925.824 342.093L929.654 337.304L932.207 339.812L934.669 342.245V358.434ZM491.351 347.641C491.078 347.869 490.531 347.489 490.257 346.729C489.71 345.665 489.801 345.589 490.713 346.273C491.351 346.805 491.625 347.413 491.351 347.641ZM1075.45 351.746C1079.19 355.546 1091.13 366.871 1098.79 373.864C1111.92 385.797 1113.66 387.546 1112.65 387.546C1112.11 387.546 1110.19 388.534 1108.55 389.826L1105.36 392.106H1091.32H1077.27L1074.08 389.37C1071.07 386.786 1070.98 386.482 1070.89 380.857C1070.89 377.665 1070.71 370.824 1070.62 365.655C1070.34 357.978 1070.62 356.078 1071.8 354.938C1073.35 353.494 1073.08 350.91 1071.26 348.857C1070.16 347.717 1070.25 347.717 1071.9 348.781C1072.9 349.389 1074.54 350.758 1075.45 351.746ZM438.102 350.682C437.737 351.29 436.734 351.822 435.731 351.822C434.181 351.822 434.09 351.594 435.002 350.682C435.64 350.073 436.734 349.541 437.373 349.541C438.102 349.541 438.376 349.997 438.102 350.682ZM435.002 354.558C435.002 355.47 436.096 356.99 437.373 357.826L439.834 359.422L439.196 372.876L438.467 386.253L435.731 389.218L432.905 392.106H418.407C404.274 392.106 403.909 392.03 401.721 390.206C400.445 389.218 399.442 388.534 399.442 388.762C399.442 388.99 398.803 388.61 397.983 388.002C396.706 386.862 396.889 386.558 399.624 384.353C402.451 381.997 413.939 371.28 426.705 359.042C429.805 356.154 432.266 353.57 432.266 353.342C432.266 353.038 432.905 352.81 433.634 352.81C434.455 352.81 435.002 353.57 435.002 354.558ZM877.681 360.183C877.681 366.415 876.04 367.099 875.584 360.943C875.311 356.838 875.767 354.862 876.952 354.862C877.317 354.862 877.681 357.218 877.681 360.183ZM718.207 358.206C717.843 359.346 718.116 360.183 718.846 360.411C719.666 360.715 719.666 360.867 718.846 360.867C718.299 360.943 717.569 360.639 717.296 360.335C716.748 359.651 717.66 356.382 718.299 356.382C718.572 356.382 718.481 357.218 718.207 358.206ZM490.622 377.208V386.33L487.248 389.218L483.874 392.106H469.65C456.52 392.106 455.244 391.954 453.694 390.586C452.691 389.674 450.867 389.066 448.952 389.066C447.311 389.066 445.944 388.762 445.944 388.458C445.944 388.078 447.22 387.926 448.679 388.154C450.685 388.382 451.323 388.23 451.05 387.47C450.776 386.862 452.964 384.885 456.338 382.605C466.277 375.992 476.215 369 480.41 365.731L484.513 362.539L487.522 365.275L490.622 368.087V377.208ZM1044.36 376.6C1061.23 388.382 1062.32 388.99 1063.96 388.534C1065.06 388.23 1065.24 388.306 1064.6 388.914C1064.05 389.446 1062.59 389.522 1060.5 389.066C1058.77 388.762 1057.85 388.458 1058.58 388.382C1059.31 388.306 1059.68 388.078 1059.4 387.85C1058.58 387.166 1054.11 389.902 1054.11 391.042C1054.11 391.878 1051.47 392.106 1040.16 392.106H1026.21L1022.93 389.218L1019.56 386.406L1019.28 375.992C1019.1 370.292 1019.28 365.807 1019.74 366.035C1021.02 366.719 1023.93 365.427 1024.57 363.831C1025.12 362.387 1025.48 362.539 1029.41 365.655C1031.68 367.555 1038.43 372.42 1044.36 376.6ZM848.048 367.631C848.048 368.315 848.321 368.544 848.686 368.315C848.96 368.011 849.689 368.468 850.236 369.304C850.783 370.064 854.43 374.396 858.442 378.881L865.554 387.014L862.09 389.522C856.892 393.17 852.151 393.094 846.589 389.294L842.577 386.482V380.629C842.577 374.244 843.124 372.116 844.674 372.876C845.221 373.104 845.312 372.952 844.948 372.496C844.583 371.964 844.674 371.584 845.221 371.584C846.498 371.584 846.133 366.947 844.765 366.491C844.127 366.339 843.854 365.655 844.127 365.047C844.583 364.059 844.857 364.135 846.315 365.199C847.318 365.883 848.048 367.023 848.048 367.631ZM538.947 367.935C541.591 370.368 541.591 370.672 541.683 378.425V386.33L538.309 389.218L534.935 392.106H523.629C513.69 392.106 512.049 391.954 510.043 390.586C508.767 389.75 506.669 388.99 505.302 388.99C503.569 388.914 503.387 388.762 504.664 388.534C506.031 388.23 506.122 388.002 505.119 387.47C504.208 386.938 504.116 386.634 504.937 386.177C506.669 385.265 518.796 376.752 526.547 371.052C530.559 368.087 534.479 365.579 535.118 365.579C535.756 365.503 537.488 366.643 538.947 367.935ZM979.621 368.696C982.174 370.52 988.739 375.08 994.027 378.881C999.407 382.757 1004.33 386.025 1005.06 386.177C1005.97 386.482 1005.88 386.786 1004.7 387.774C1003.87 388.458 1002.96 389.066 1002.69 389.066C1002.42 389.066 1001.32 389.75 1000.32 390.586C998.677 391.954 997.31 392.106 986.824 392.106H975.153L971.688 389.522L968.314 386.862L968.497 378.653C968.588 370.976 968.77 370.292 971.05 368.011C972.326 366.719 973.785 365.579 974.15 365.579C974.606 365.503 977.068 366.947 979.621 368.696ZM720.943 379.033L721.399 386.558L717.296 389.294C713.466 391.954 712.828 392.106 706.992 392.106C701.065 392.106 700.518 391.954 697.783 389.598L694.956 387.166L701.795 379.945C705.533 375.992 710.092 371.28 711.825 369.532L715.016 366.263L717.751 368.848C720.213 371.28 720.487 371.964 720.943 379.033ZM789.054 369.76C791.151 371.736 795.072 375.916 797.716 379.109C800.452 382.301 803.096 384.961 803.461 385.113C805.011 385.645 804.281 387.014 801.364 389.522L798.355 392.106H783.766H769.177L766.168 389.522L763.159 386.938L771.183 378.653C779.207 370.444 783.766 366.263 784.86 366.263C785.134 366.263 787.048 367.859 789.054 369.76ZM845.039 368.391C845.039 369.152 844.401 370.216 843.762 370.748C842.668 371.508 842.577 371.356 842.942 369.532C843.489 366.871 843.306 367.023 844.309 367.023C844.857 367.023 845.13 367.631 845.039 368.391ZM882.696 368.696C882.696 369.152 885.523 372.648 888.897 376.448C899.018 387.698 898.47 386.406 894.823 389.446C891.997 391.802 891.085 392.106 886.891 392.106C882.605 392.106 881.876 391.802 878.684 389.142L875.311 386.253L875.493 379.869C875.675 374.016 875.858 373.256 878.228 370.976C879.687 369.608 880.873 368.163 880.873 367.707C880.873 367.251 881.329 367.175 881.784 367.403C882.332 367.631 882.696 368.239 882.696 368.696ZM637.878 370.748C637.695 371.052 638.334 371.356 639.337 371.356C640.431 371.432 641.434 370.9 641.798 369.988C642.163 369.152 642.619 372.344 642.71 377.056L642.893 385.569L639.063 388.838C635.325 392.03 635.142 392.106 629.033 392.106C625.66 392.106 622.833 391.802 622.833 391.498C622.833 390.358 619.459 387.546 618.821 388.078C618.547 388.306 618.274 388.078 618.274 387.47C618.274 386.558 620.189 384.277 627.21 377.284C628.03 376.448 630.219 374.016 631.951 371.812C634.869 368.239 635.233 368.011 636.692 369.076C637.604 369.76 638.151 370.52 637.878 370.748ZM751.397 369.38C751.397 369.76 750.576 370.064 749.573 370.064C748.023 370.064 747.932 370.292 748.753 372.116C749.3 373.332 750.303 374.776 751.123 375.536C751.944 376.296 752.582 378.729 752.765 381.617C753.038 386.177 752.947 386.558 749.938 389.218C747.203 391.802 746.291 392.106 742.461 392.106C738.814 392.106 737.72 391.726 734.711 389.37L731.246 386.634L734.255 383.821C742.188 376.296 746.382 372.04 746.838 371.204C748.206 368.696 751.397 367.327 751.397 369.38ZM820.967 373.94C822.426 375.156 823.338 376.144 822.882 376.144C822.426 376.144 822.517 376.448 823.064 376.752C823.612 377.056 826.165 379.337 828.718 381.921L833.277 386.558L829.538 389.294C824.523 392.942 821.97 392.866 817.776 389.218C814.949 386.786 814.402 385.873 814.22 382.377C814.038 379.717 814.402 378.121 815.223 377.437C816.317 376.676 816.317 376.752 815.314 378.045C814.585 378.881 815.132 378.577 816.5 377.437C819.144 375.004 819.508 373.484 817.502 372.8C816.682 372.572 816.135 371.432 816.226 369.912L816.317 367.403L817.229 369.608C817.776 370.748 819.417 372.724 820.967 373.94ZM944.881 369.836C945.793 370.52 946.522 371.432 946.522 371.812C946.522 372.268 949.44 375.764 952.905 379.641L959.379 386.71L955.914 389.37C950.99 393.17 946.978 393.17 942.51 389.294C939.501 386.71 939.228 386.101 939.228 382.149C939.228 379.717 938.954 377.284 938.681 376.676C938.407 376.068 938.863 375.384 939.775 375.08C940.869 374.7 941.143 374.928 940.687 375.764C940.413 376.448 940.504 376.828 940.96 376.6C941.416 376.372 941.69 374.472 941.599 372.344C941.507 368.315 942.146 367.783 944.881 369.836ZM603.229 370.064C603.503 370.444 603.32 370.824 602.864 370.824C602.317 370.824 601.862 370.444 601.862 370.064C601.862 369.608 602.044 369.304 602.226 369.304C602.5 369.304 602.956 369.608 603.229 370.064ZM571.225 373.94C574.416 377.056 573.596 386.938 569.857 390.282C568.216 391.726 566.94 392.106 563.201 392.106C559.189 392.03 558.095 391.726 555.086 389.37L551.53 386.634L553.718 384.657C554.995 383.517 558.551 379.717 561.742 376.296C567.122 370.444 567.669 370.064 568.763 371.356C569.401 372.116 570.496 373.256 571.225 373.94ZM915.612 373.636C916.798 375.232 918.074 376.6 918.439 376.752C919.442 377.132 927.375 386.558 927.375 387.394C927.375 387.85 926.098 389.066 924.548 390.13C920.445 393.018 915.795 392.866 912.147 389.598C909.594 387.47 909.23 386.558 908.956 382.225C908.774 378.045 909.047 376.904 910.78 374.776C911.965 373.484 912.603 372.04 912.33 371.584C912.056 371.204 912.147 370.824 912.695 370.824C913.15 370.824 914.518 372.116 915.612 373.636ZM604.141 376.372C605.053 377.208 605.509 379.337 605.509 382.377C605.509 386.634 605.235 387.318 602.591 389.598C600.129 391.726 599.035 392.106 595.57 392.106C592.196 392.106 590.92 391.65 588.549 389.75L585.54 387.318L589.826 382.681C592.196 380.097 595.479 376.752 597.211 375.156C600.22 372.42 600.494 372.268 601.588 373.636C602.226 374.396 603.412 375.612 604.141 376.372ZM61.6193 381.465C61.8929 381.845 61.7105 382.225 61.2546 382.225C60.7075 382.225 60.2516 381.845 60.2516 381.465C60.2516 381.009 60.434 380.705 60.6164 380.705C60.8899 380.705 61.3458 381.009 61.6193 381.465ZM1116.12 381.921C1116.12 382.529 1115.75 382.833 1115.21 382.605C1114.75 382.377 1114.29 381.845 1114.29 381.389C1114.29 381.009 1114.75 380.705 1115.21 380.705C1115.75 380.705 1116.12 381.237 1116.12 381.921ZM1311.43 383.365C1310.15 385.721 1309.78 385.873 1308.6 384.961C1307.41 383.973 1307.6 383.593 1309.51 382.301C1312.61 380.097 1313.07 380.325 1311.43 383.365ZM647.725 384.885C647.452 385.569 646.996 385.949 646.813 385.721C646.54 385.493 646.631 385.037 646.996 384.581C647.816 383.365 648.363 383.593 647.725 384.885ZM728.602 387.85C728.602 388.458 727.964 389.066 727.234 389.37C726.14 389.674 726.049 389.522 727.052 388.306C728.328 386.482 728.602 386.406 728.602 387.85ZM394.883 388.458C394.883 388.762 394.244 389.066 393.515 389.066C392.786 389.066 392.147 388.762 392.147 388.458C392.147 388.078 392.786 387.774 393.515 387.774C394.244 387.774 394.883 388.078 394.883 388.458ZM502.475 388.686C502.475 389.37 501.655 389.826 500.469 389.826C498.554 389.826 498.554 389.826 500.287 388.686C502.475 387.318 502.475 387.318 502.475 388.686ZM548.065 388.686C547.427 389.37 546.698 389.674 546.333 389.446C546.059 389.218 546.424 388.686 547.153 388.306C549.068 387.242 549.342 387.394 548.065 388.686ZM837.562 388.306C837.836 388.686 837.653 389.066 837.197 389.066C836.65 389.066 836.194 388.686 836.194 388.306C836.194 387.85 836.377 387.546 836.559 387.546C836.833 387.546 837.289 387.85 837.562 388.306ZM1013.08 389.37C1012.08 390.434 1007.61 390.13 1007.61 388.99C1007.61 388.61 1008.89 388.534 1010.53 388.838C1012.72 389.218 1013.18 389.066 1012.63 388.306C1012.17 387.622 1012.26 387.47 1012.99 387.85C1013.72 388.306 1013.81 388.686 1013.08 389.37ZM1117.94 389.142C1117.94 389.446 1117.3 389.598 1116.57 389.37C1115.84 389.066 1115.21 388.61 1115.21 388.23C1115.21 387.926 1115.84 387.774 1116.57 388.002C1117.3 388.306 1117.94 388.762 1117.94 389.142ZM1311.24 388.99C1312.61 387.166 1313.16 388.762 1311.88 390.814C1310.88 392.41 1310.42 392.638 1309.42 391.878C1308.51 391.118 1308.42 391.194 1308.96 392.03C1309.42 392.714 1309.33 392.942 1308.78 392.638C1308.23 392.334 1307.6 391.422 1307.32 390.586C1307.05 389.75 1307.23 389.294 1307.69 389.522C1308.14 389.75 1308.78 389.294 1309.15 388.534C1309.78 387.242 1309.88 387.242 1310.15 388.61C1310.42 389.75 1310.7 389.826 1311.24 388.99ZM497.46 389.826C497.734 390.206 497.369 390.586 496.548 390.586C495.728 390.586 495.363 390.206 495.637 389.826C495.91 389.37 496.366 389.066 496.548 389.066C496.731 389.066 497.187 389.37 497.46 389.826ZM1306.32 398.415C1310.15 401.303 1310.06 402.823 1305.77 405.636L1303.22 407.308H754.497H205.775L202.857 404.952C199.119 401.911 199.575 400.467 205.228 397.199C207.325 395.983 240.059 395.907 755.226 395.907H1303.04L1306.32 398.415Z"
    fill="#4285F4" fill-opacity="0.5" />
  <path
    d="M1021.29 338.445C1021.29 338.597 1021.93 339.129 1022.66 339.661C1023.84 340.497 1023.93 340.421 1023.48 339.357C1023.02 338.293 1021.29 337.609 1021.29 338.445Z"
    fill="#4285F4" fill-opacity="0.5" />
  <path
    d="M486.974 339.812C485.88 341.485 485.88 341.485 487.522 340.268C488.433 339.508 488.889 338.748 488.616 338.444C488.251 338.216 487.522 338.824 486.974 339.812Z"
    fill="#4285F4" fill-opacity="0.5" />
  <path
    d="M1071.8 356.534L1070.07 358.282L1072.17 356.838C1074.08 355.47 1074.63 354.862 1073.9 354.862C1073.72 354.862 1072.81 355.622 1071.8 356.534Z"
    fill="#4285F4" fill-opacity="0.5" />
  <path
    d="M943.331 371.584C943.605 371.964 944.06 372.344 944.334 372.344C944.516 372.344 944.699 371.964 944.699 371.584C944.699 371.128 944.243 370.824 943.696 370.824C943.24 370.824 943.057 371.128 943.331 371.584Z"
    fill="#4285F4" fill-opacity="0.5" />
  <path
    d="M52.0454 250.275C52.0454 250.427 52.7749 251.035 53.6867 251.567C55.0544 252.555 55.1455 252.479 53.9602 251.263C52.7749 250.047 52.0454 249.667 52.0454 250.275Z"
    fill="#4285F4" fill-opacity="0.5" />
  <defs>
    <filter id="filter0_d_141_1089" x="608" y="306" width="257" height="56" filterUnits="userSpaceOnUse"
      color-interpolation-filters="sRGB">
      <feFlood flood-opacity="0" result="BackgroundImageFix" />
      <feColorMatrix in="SourceAlpha" type="matrix" values="0 0 0 0 0 0 0 0 0 0 0 0 0 0 0 0 0 0 127 0"
        result="hardAlpha" />
      <feOffset dy="4" />
      <feGaussianBlur stdDeviation="2" />
      <feComposite in2="hardAlpha" operator="out" />
      <feColorMatrix type="matrix" values="0 0 0 0 0 0 0 0 0 0 0 0 0 0 0 0 0 0 0.25 0" />
      <feBlend mode="normal" in2="BackgroundImageFix" result="effect1_dropShadow_141_1089" />
      <feBlend mode="normal" in="SourceGraphic" in2="effect1_dropShadow_141_1089" result="shape" />
    </filter>
  </defs>
</svg>