<svg xmlns="http://www.w3.org/2000/svg" x="0px" y="0px" width="100" height="100" viewBox="0 0 24 24">
    <path
        d="M 4.5 3 C 2.5788117 3 1 4.5788117 1 6.5 L 1 18 C 1 19.64497 2.3550302 21 4 21 L 8 21 L 8 13.673828 L 12 16.798828 L 16 13.673828 L 16 21 L 20 21 C 21.64497 21 23 19.64497 23 18 L 23 6.5 C 23 4.5788117 21.421188 3 19.5 3 C 18.750123 3 17.982547 3.2422598 17.34375 3.7421875 L 12 7.9121094 L 6.65625 3.7421875 L 6.6542969 3.7421875 C 6.0158061 3.2430811 5.2492693 3 4.5 3 z M 4.5 5 C 4.8301235 5 5.1426247 5.098287 5.4238281 5.3183594 L 6 5.7675781 L 6 9.5742188 L 3 7.2324219 L 3 6.5 C 3 5.6591883 3.6591883 5 4.5 5 z M 19.5 5 C 20.340812 5 21 5.6591883 21 6.5 L 21 7.2324219 L 18 9.5742188 L 18 5.7675781 L 18.576172 5.3183594 C 18.857375 5.0982871 19.169877 5 19.5 5 z M 8 7.328125 L 12 10.449219 L 16 7.328125 L 16 11.136719 L 12 14.261719 L 8 11.136719 L 8 7.328125 z M 3 9.7695312 L 6 12.111328 L 6 19 L 4 19 C 3.4349698 19 3 18.56503 3 18 L 3 9.7695312 z M 21 9.7695312 L 21 18 C 21 18.56503 20.56503 19 20 19 L 18 19 L 18 12.111328 L 21 9.7695312 z">
    </path>
</svg>