<?xml version="1.0" encoding="UTF-8"?>
<svg viewBox="0 0 837 164" xmlns="http://www.w3.org/2000/svg">
    <path
        d="m8.1 25.4h43.4v10.4h-32.4v21h29.2v10.4h-29.2v29.8h-11v-71.6zm171.93 20.6h10.2v7.5h0.6c1.134-2.6 3.067-4.7333 5.8-6.4 2.8-1.7333 5.8-2.6 9-2.6 2.334 0 4.4 0.3333 6.2 1v11.2c-2.733-1.2-5.366-1.8-7.9-1.8-3.8 0-6.933 1.4667-9.4 4.4-2.466 2.9333-3.7 6.5-3.7 10.7v27h-10.8v-51zm469.76 9.4h-9.3v-9.4h9.3v-4.2c0-5.3333 1.634-9.5333 4.9-12.6 3.334-3.0667 7.534-4.6 12.6-4.6 2.867 0 5.5 0.4 7.9 1.2v10.5c-1.2-0.4667-2.333-0.8333-3.4-1.1-1.066-0.3333-2.266-0.5-3.6-0.5-2.2 0-4.033 0.7-5.5 2.1-1.466 1.4-2.2 3.3667-2.2 5.9v3.3h12.8v9.4h-12.8v41.6h-10.7v-41.6zm152.4-9.4h10.2v7.5h0.6c1.134-2.6 3.067-4.7333 5.8-6.4 2.8-1.7333 5.8-2.6 9-2.6 2.334 0 4.4 0.3333 6.2 1v11.2c-2.733-1.2-5.366-1.8-7.9-1.8-3.8 0-6.933 1.4667-9.4 4.4-2.466 2.9333-3.7 6.5-3.7 10.7v27h-10.8v-51z"
        fill="#4285F4" />
    <path
        d="m85.476 98.6c-5.1334 0-9.7334-1.1667-13.8-3.5-4.0667-2.4-7.2334-5.6667-9.5-9.8-2.2667-4.1333-3.4-8.7333-3.4-13.8s1.1333-9.6667 3.4-13.8c2.2666-4.1333 5.4333-7.3667 9.5-9.7 4.0666-2.4 8.6666-3.6 13.8-3.6 5.0666 0 9.6333 1.2 13.7 3.6 4.0662 2.4 7.2332 5.6667 9.5002 9.8 2.266 4.1333 3.4 8.7 3.4 13.7 0 5.0667-1.134 9.6667-3.4 13.8-2.267 4.1333-5.434 7.4-9.5002 9.8-4 2.3333-8.5667 3.5-13.7 3.5zm0-9.9c2.8666 0 5.5-0.7 7.9-2.1s4.3333-3.4 5.8-6c1.4662-2.6 2.2002-5.6333 2.2002-9.1s-0.734-6.5-2.2002-9.1c-1.4667-2.6-3.4-4.6-5.8-6s-5.0334-2.1-7.9-2.1c-2.8667 0-5.5334 0.7-8 2.1-2.4 1.4-4.3334 3.4-5.8 6-1.4667 2.6-2.2 5.6333-2.2 9.1s0.7333 6.5 2.2 9.1c1.4666 2.6 3.4 4.6 5.8 6 2.4666 1.4 5.1333 2.1 8 2.1zm622.17 9.9c-5.134 0-9.734-1.1667-13.8-3.5-4.067-2.4-7.234-5.6667-9.5-9.8-2.267-4.1333-3.4-8.7333-3.4-13.8s1.133-9.6667 3.4-13.8c2.266-4.1333 5.433-7.3667 9.5-9.7 4.066-2.4 8.666-3.6 13.8-3.6 5.066 0 9.633 1.2 13.7 3.6 4.066 2.4 7.233 5.6667 9.5 9.8 2.266 4.1333 3.4 8.7 3.4 13.7 0 5.0667-1.134 9.6667-3.4 13.8-2.267 4.1333-5.434 7.4-9.5 9.8-4 2.3333-8.567 3.5-13.7 3.5zm0-9.9c2.866 0 5.5-0.7 7.9-2.1s4.333-3.4 5.8-6c1.466-2.6 2.2-5.6333 2.2-9.1s-0.734-6.5-2.2-9.1c-1.467-2.6-3.4-4.6-5.8-6s-5.034-2.1-7.9-2.1c-2.867 0-5.534 0.7-8 2.1-2.4 1.4-4.334 3.4-5.8 6-1.467 2.6-2.2 5.6333-2.2 9.1s0.733 6.5 2.2 9.1c1.466 2.6 3.4 4.6 5.8 6 2.466 1.4 5.133 2.1 8 2.1z"
        fill="#EA4335" />
    <path
        d="m140.52 98.6c-6.134 0-10.834-1.8333-14.1-5.5-3.2-3.7333-4.8-8.9-4.8-15.5v-31.6h10.8v30.1c0 4.1333 0.966 7.2667 2.9 9.4 1.933 2.1333 4.533 3.2 7.8 3.2 2.666 0 5.033-0.7 7.1-2.1 2.066-1.4 3.633-3.2667 4.7-5.6 1.133-2.3333 1.7-4.8667 1.7-7.6v-27.4h10.7v51h-10.1v-6.9h-0.6c-1.467 2.4667-3.667 4.5-6.6 6.1-2.934 1.6-6.1 2.4-9.5 2.4zm622.17 0c-6.134 0-10.834-1.8333-14.1-5.5-3.2-3.7333-4.8-8.9-4.8-15.5v-31.6h10.8v30.1c0 4.1333 0.966 7.2667 2.9 9.4 1.933 2.1333 4.533 3.2 7.8 3.2 2.666 0 5.033-0.7 7.1-2.1 2.066-1.4 3.633-3.2667 4.7-5.6 1.133-2.3333 1.7-4.8667 1.7-7.6v-27.4h10.7v51h-10.1v-6.9h-0.6c-1.467 2.4667-3.667 4.5-6.6 6.1-2.934 1.6-6.1 2.4-9.5 2.4z"
        fill="#37A855" />
    <path
        d="m244.17 98.6c-5.133 0-9.733-1.1667-13.8-3.5-4.066-2.4-7.233-5.6667-9.5-9.8-2.266-4.1333-3.4-8.7333-3.4-13.8s1.134-9.6667 3.4-13.8c2.267-4.1333 5.434-7.3667 9.5-9.7 4.067-2.4 8.667-3.6 13.8-3.6 5.067 0 9.634 1.2 13.7 3.6 4.067 2.4 7.234 5.6667 9.5 9.8 2.267 4.1333 3.4 8.7 3.4 13.7 0 5.0667-1.133 9.6667-3.4 13.8-2.266 4.1333-5.433 7.4-9.5 9.8-4 2.3333-8.566 3.5-13.7 3.5zm0-9.9c2.867 0 5.5-0.7 7.9-2.1s4.334-3.4 5.8-6c1.467-2.6 2.2-5.6333 2.2-9.1s-0.733-6.5-2.2-9.1c-1.466-2.6-3.4-4.6-5.8-6s-5.033-2.1-7.9-2.1c-2.866 0-5.533 0.7-8 2.1-2.4 1.4-4.333 3.4-5.8 6-1.466 2.6-2.2 5.6333-2.2 9.1s0.734 6.5 2.2 9.1c1.467 2.6 3.4 4.6 5.8 6 2.467 1.4 5.134 2.1 8 2.1zm60.547 9.9c-5.133 0-9.733-1.1667-13.8-3.5-4.067-2.4-7.233-5.6667-9.5-9.8s-3.4-8.7333-3.4-13.8 1.133-9.6667 3.4-13.8 5.433-7.3667 9.5-9.7c4.067-2.4 8.667-3.6 13.8-3.6 5.067 0 9.633 1.2 13.7 3.6s7.233 5.6667 9.5 9.8 3.4 8.7 3.4 13.7c0 5.0667-1.133 9.6667-3.4 13.8s-5.433 7.4-9.5 9.8c-4 2.3333-8.567 3.5-13.7 3.5zm0-9.9c2.867 0 5.5-0.7 7.9-2.1s4.333-3.4 5.8-6 2.2-5.6333 2.2-9.1-0.733-6.5-2.2-9.1-3.4-4.6-5.8-6-5.033-2.1-7.9-2.1-5.533 0.7-8 2.1c-2.4 1.4-4.333 3.4-5.8 6s-2.2 5.6333-2.2 9.1 0.733 6.5 2.2 9.1 3.4 4.6 5.8 6c2.467 1.4 5.133 2.1 8 2.1zm60.547 9.9c-5.133 0-9.733-1.1667-13.8-3.5-4.067-2.4-7.233-5.6667-9.5-9.8s-3.4-8.7333-3.4-13.8 1.133-9.6667 3.4-13.8 5.433-7.3667 9.5-9.7c4.067-2.4 8.667-3.6 13.8-3.6 5.067 0 9.633 1.2 13.7 3.6s7.233 5.6667 9.5 9.8 3.4 8.7 3.4 13.7c0 5.0667-1.133 9.6667-3.4 13.8s-5.433 7.4-9.5 9.8c-4 2.3333-8.567 3.5-13.7 3.5zm0-9.9c2.867 0 5.5-0.7 7.9-2.1s4.333-3.4 5.8-6 2.2-5.6333 2.2-9.1-0.733-6.5-2.2-9.1-3.4-4.6-5.8-6-5.033-2.1-7.9-2.1-5.533 0.7-8 2.1c-2.4 1.4-4.333 3.4-5.8 6s-2.2 5.6333-2.2 9.1 0.733 6.5 2.2 9.1 3.4 4.6 5.8 6c2.467 1.4 5.133 2.1 8 2.1zm60.547 9.9c-5.134 0-9.734-1.1667-13.8-3.5-4.067-2.4-7.234-5.6667-9.5-9.8-2.267-4.1333-3.4-8.7333-3.4-13.8s1.133-9.6667 3.4-13.8c2.266-4.1333 5.433-7.3667 9.5-9.7 4.066-2.4 8.666-3.6 13.8-3.6 5.066 0 9.633 1.2 13.7 3.6 4.066 2.4 7.233 5.6667 9.5 9.8 2.266 4.1333 3.4 8.7 3.4 13.7 0 5.0667-1.134 9.6667-3.4 13.8-2.267 4.1333-5.434 7.4-9.5 9.8-4 2.3333-8.567 3.5-13.7 3.5zm0-9.9c2.866 0 5.5-0.7 7.9-2.1s4.333-3.4 5.8-6c1.466-2.6 2.2-5.6333 2.2-9.1s-0.734-6.5-2.2-9.1c-1.467-2.6-3.4-4.6-5.8-6s-5.034-2.1-7.9-2.1c-2.867 0-5.534 0.7-8 2.1-2.4 1.4-4.334 3.4-5.8 6-1.467 2.6-2.2 5.6333-2.2 9.1s0.733 6.5 2.2 9.1c1.466 2.6 3.4 4.6 5.8 6 2.466 1.4 5.133 2.1 8 2.1zm60.547 9.9c-5.134 0-9.734-1.1667-13.8-3.5-4.067-2.4-7.234-5.6667-9.5-9.8-2.267-4.1333-3.4-8.7333-3.4-13.8s1.133-9.6667 3.4-13.8c2.266-4.1333 5.433-7.3667 9.5-9.7 4.066-2.4 8.666-3.6 13.8-3.6 5.066 0 9.633 1.2 13.7 3.6 4.066 2.4 7.233 5.6667 9.5 9.8 2.266 4.1333 3.4 8.7 3.4 13.7 0 5.0667-1.134 9.6667-3.4 13.8-2.267 4.1333-5.434 7.4-9.5 9.8-4 2.3333-8.567 3.5-13.7 3.5zm0-9.9c2.866 0 5.5-0.7 7.9-2.1s4.333-3.4 5.8-6c1.466-2.6 2.2-5.6333 2.2-9.1s-0.734-6.5-2.2-9.1c-1.467-2.6-3.4-4.6-5.8-6s-5.034-2.1-7.9-2.1c-2.867 0-5.534 0.7-8 2.1-2.4 1.4-4.334 3.4-5.8 6-1.467 2.6-2.2 5.6333-2.2 9.1s0.733 6.5 2.2 9.1c1.466 2.6 3.4 4.6 5.8 6 2.466 1.4 5.133 2.1 8 2.1zm60.547 9.9c-5.134 0-9.734-1.1667-13.8-3.5-4.067-2.4-7.234-5.6667-9.5-9.8-2.267-4.1333-3.4-8.7333-3.4-13.8s1.133-9.6667 3.4-13.8c2.266-4.1333 5.433-7.3667 9.5-9.7 4.066-2.4 8.666-3.6 13.8-3.6 5.066 0 9.633 1.2 13.7 3.6 4.066 2.4 7.233 5.6667 9.5 9.8 2.266 4.1333 3.4 8.7 3.4 13.7 0 5.0667-1.134 9.6667-3.4 13.8-2.267 4.1333-5.434 7.4-9.5 9.8-4 2.3333-8.567 3.5-13.7 3.5zm0-9.9c2.866 0 5.5-0.7 7.9-2.1s4.333-3.4 5.8-6c1.466-2.6 2.2-5.6333 2.2-9.1s-0.734-6.5-2.2-9.1c-1.467-2.6-3.4-4.6-5.8-6s-5.034-2.1-7.9-2.1c-2.867 0-5.534 0.7-8 2.1-2.4 1.4-4.334 3.4-5.8 6-1.467 2.6-2.2 5.6333-2.2 9.1s0.733 6.5 2.2 9.1c1.466 2.6 3.4 4.6 5.8 6 2.466 1.4 5.133 2.1 8 2.1zm60.546 9.9c-5.133 0-9.733-1.1667-13.8-3.5-4.066-2.4-7.233-5.6667-9.5-9.8-2.266-4.1333-3.4-8.7333-3.4-13.8s1.134-9.6667 3.4-13.8c2.267-4.1333 5.434-7.3667 9.5-9.7 4.067-2.4 8.667-3.6 13.8-3.6 5.067 0 9.634 1.2 13.7 3.6 4.067 2.4 7.234 5.6667 9.5 9.8 2.267 4.1333 3.4 8.7 3.4 13.7 0 5.0667-1.133 9.6667-3.4 13.8-2.266 4.1333-5.433 7.4-9.5 9.8-4 2.3333-8.566 3.5-13.7 3.5zm0-9.9c2.867 0 5.5-0.7 7.9-2.1s4.334-3.4 5.8-6c1.467-2.6 2.2-5.6333 2.2-9.1s-0.733-6.5-2.2-9.1c-1.466-2.6-3.4-4.6-5.8-6s-5.033-2.1-7.9-2.1c-2.866 0-5.533 0.7-8 2.1-2.4 1.4-4.333 3.4-5.8 6-1.466 2.6-2.2 5.6333-2.2 9.1s0.734 6.5 2.2 9.1c1.467 2.6 3.4 4.6 5.8 6 2.467 1.4 5.134 2.1 8 2.1z"
        fill="#FBBC03" />
</svg>