<?xml version="1.0" encoding="utf-8"?>
<svg viewBox="0 0 122 66" fill="none" xmlns="http://www.w3.org/2000/svg">
    <path
        d="M29.3999 29.9L49.0999 18.5C53.6999 15.8 55.2999 9.89999 52.5999 5.29999C49.8999 0.699987 43.9999 -0.900013 39.3999 1.79999L5.3999 21.4L29.3999 29.9Z"
        fill="#EA4335" />
    <path
        d="M44.1999 59.1C47.4999 59.1 50.7999 57.4 52.5999 54.3C55.2999 49.7 53.6999 43.8 49.0999 41.1L15.0999 21.5C10.4999 18.8 4.59987 20.4 1.89987 25C-0.800129 29.6 0.799871 35.5 5.39987 38.2L39.3999 57.8C40.8999 58.7 42.5999 59.1 44.1999 59.1Z"
        fill="#4285F4" />
    <path
        d="M78.0001 59.1C79.6001 59.1 81.3001 58.7 82.8001 57.8L116.8 38.2L93.1001 29.5L73.1001 41C68.5001 43.7 66.9001 49.6 69.6001 54.2C71.4001 57.4 74.7001 59.1 78.0001 59.1Z"
        fill="#FBBC04" />
    <path
        d="M112 39.5C115.3 39.5 118.6 37.8 120.4 34.7C123.1 30.1 121.5 24.2 116.9 21.5L82.9002 1.89999C78.3002 -0.800014 72.4002 0.800016 69.7002 5.40002C67.0002 10 68.6002 15.9 73.2002 18.6L107.2 38.2C108.7 39.1 110.4 39.5 112 39.5Z"
        fill="#34A853" />
</svg>