<?xml version="1.0" encoding="UTF-8"?>
<svg id="Layer_2" data-name="Layer 2" xmlns="http://www.w3.org/2000/svg" viewBox="0 0 1731.08 455.89">
  <defs>
    <style>
      .cls-1 {
        fill: none;
      }

      .cls-2 {
        fill: #f2c50a;
      }

      .cls-3 {
        fill: #54e4fc;
      }
    </style>
  </defs>
  <g id="Layer_1-2" data-name="Layer 1">
    <g>
      <g>
        <g>
          <path class="cls-2" d="M1715.43,200.26c-.36,52.22-43,94.27-95.22,93.91l-96.37-.67h-52.06c-7.98,0-14.45-6.47-14.45-14.46v-67.47h.16l.64-92.31c.36-52.23,43-94.28,95.22-93.91,24.08,.17,46,9.32,62.59,24.26,16.59,14.94,27.86,35.66,30.64,58.97,39.97,11.27,69.14,48.14,68.83,91.68Z"/>
          <path class="cls-1" d="M1642.35,123.64l-1.84-.52c-4.97-1.4-8.6-5.65-9.21-10.78l-.23-1.9c-2.26-18.91-11.35-36.39-25.58-49.2-9.03-8.13-19.72-13.98-31.23-17.25-10.8,2.44-22.67,7.22-29.96,16.6-7.98,10.27-9.23,24.68-3.71,42.83l.18,.59-.62,173.96,80.17,.56c.19,0,.37,0,.56,0,20.87,0,40.53-8.06,55.41-22.73,.27-.27,.53-.55,.8-.82-10.41-.48-22.13-2.5-34.29-7.38-.04-.02-.08-.04-.12-.06-3.13-1.3-5.33-4.38-5.33-7.97,0-4.77,3.86-8.63,8.63-8.63s8.63,3.86,8.63,8.63c0,1.14-.22,2.22-.62,3.21,10.88,3.23,21.24,4.16,30.2,3.97,10.01-13.39,15.49-29.56,15.61-46.59h0c.25-35.44-23.37-66.91-57.44-76.51Z"/>
          <path class="cls-3" d="M1556.79,41.1c-1.18-.06-2.36-.1-3.54-.11-21.09-.22-40.96,7.92-55.97,22.73-15.01,14.8-23.36,34.57-23.5,55.65l-.75,107.85h-.05v37.87c0,7.05,5.72,12.77,12.77,12.77h38.1l8.07,.06,.62-172.7c-6.13-20.59-4.35-37.31,5.29-49.7,5.08-6.53,11.82-11.14,18.97-14.42Z"/>
          <path d="M1731.08,200.06c.31-43.97-25.7-83.55-64.88-101.25-3.54-1.6-6.18-4.67-7.21-8.42-5.55-20.18-16.79-38.5-32.57-52.71-20.04-18.05-45.95-28.09-72.95-28.28-29.45-.14-57.19,11.06-78.15,31.74-20.96,20.67-32.62,48.27-32.82,77.71l-.53,76.78h-.27v70.34c0,23.67,19.19,42.87,42.87,42.87h39.18l96.37,.67c.26,0,.52,0,.78,0,29.14,0,56.6-11.25,77.37-31.74,20.96-20.67,32.62-48.27,32.82-77.7h0Zm-198.54-95.15l-.62,172.7-8.07-.06h-38.1c-7.05,0-12.77-5.72-12.77-12.77v-37.87h.05l.75-107.85c.14-21.08,8.49-40.85,23.5-55.65,15.01-14.8,34.88-22.95,55.97-22.73,1.18,0,2.36,.04,3.54,.11-7.15,3.27-13.89,7.89-18.97,14.42-9.64,12.39-11.42,29.11-5.29,49.7Zm167.26,94.94c-.12,17.03-5.59,33.2-15.61,46.59-8.96,.19-19.32-.75-30.2-3.97,.4-.99,.62-2.07,.62-3.21,0-4.77-3.86-8.63-8.63-8.63s-8.63,3.86-8.63,8.63c0,3.6,2.2,6.68,5.33,7.97,.04,.02,.08,.05,.12,.06,12.15,4.88,23.88,6.9,34.29,7.38-.27,.27-.52,.55-.8,.82-14.88,14.67-34.54,22.73-55.41,22.73-.19,0-.37,0-.56,0l-80.17-.56,.62-173.96-.18-.59c-5.52-18.14-4.27-32.55,3.71-42.83,7.29-9.38,19.16-14.16,29.96-16.6,11.51,3.26,22.2,9.12,31.23,17.25,14.23,12.81,23.32,30.29,25.58,49.2l.23,1.9c.61,5.12,4.25,9.38,9.21,10.78l1.84,.52c34.07,9.61,57.69,41.07,57.44,76.51h0Z"/>
        </g>
        <g>
          <g>
            <path d="M188.06,313.18c-14.8,24.34-47.25,36.75-74.94,36.75C52.98,349.93,0,304.58,0,233.46S52.98,117.47,113.12,117.47c26.73,0,59.66,10.98,74.94,36.28v-9.07c0-13.36,10.5-24.82,23.87-24.82,14.32,0,25.3,11.46,25.3,24.82v178.04c0,13.36-10.98,24.82-25.3,24.82-13.36,0-23.87-11.46-23.87-24.82v-9.55Zm-69.21-10.98c36.28,0,68.73-25.3,68.73-69.21s-35.32-67.78-68.73-67.78c-37.23,0-68.26,26.73-68.26,67.78s31.03,69.21,68.26,69.21Z"/>
            <path d="M308.43,155.18c13.84-23.87,44.39-37.71,74.46-37.71,60.14,0,110.74,46.3,110.74,116.47s-50.6,115.99-110.74,115.99c-30.07,0-60.62-11.93-74.46-36.75v117.9c0,13.36-10.98,24.82-25.3,24.82-13.36,0-23.87-11.46-23.87-24.82V144.68c0-13.36,10.5-24.82,23.87-24.82,14.32,0,25.3,11.46,25.3,24.82v10.5Zm68.26,147.49c37.23,0,66.82-26.73,66.82-67.78s-29.59-69.69-66.82-69.69-67.78,26.25-67.78,69.69,33.89,67.78,67.78,67.78Z"/>
            <path d="M573.84,439.19c-5.25,12.41-17.66,19.09-30.55,15.75s-20.05-18.62-15.27-31.03l36.28-89.26-75.89-182.81c-5.25-12.41,2.39-27.68,15.27-31.03,12.89-3.34,25.3,3.34,30.55,15.75l56.32,138.42,56.8-138.42c5.25-12.41,17.66-19.09,30.55-15.75,12.89,3.34,20.52,18.62,15.27,31.03l-119.33,287.35Z"/>
          </g>
          <g>
            <path d="M761.66,157.52c12.41-27.21,47.25-38.66,70.64-38.66,56.8,0,90.21,37.23,90.21,100.71v104.53c0,13.36-10.98,24.82-25.3,24.82-13.36,0-23.87-11.46-23.87-24.82v-101.67c0-34.84-21.96-55.37-49.64-55.37s-62.05,15.75-62.05,59.66v97.37c0,13.36-10.98,24.82-25.3,24.82-13.36,0-23.87-11.46-23.87-24.82V24.82c0-13.36,10.98-24.82,25.3-24.82,13.36,0,23.87,11.46,23.87,24.82V157.52Z"/>
            <path d="M1147.14,324.1c0,13.36-10.98,24.82-25.3,24.82-13.36,0-23.87-11.46-23.87-24.82v-10.98c-12.89,25.78-43.44,38.19-68.26,38.19-53.94,0-84.96-34.84-84.96-97.85v-107.4c0-13.36,10.98-24.82,25.3-24.82,13.36,0,23.87,11.46,23.87,24.82v101.67c0,35.32,18.14,55.37,46.78,55.37s57.28-15.75,57.28-59.66v-97.37c0-13.36,10.98-24.82,25.3-24.82,13.36,0,23.87,11.46,23.87,24.82v178.04Z"/>
            <path d="M1218.55,155.61c13.84-24.34,43.44-36.75,74.94-36.75,60.62,0,111.22,44.87,111.22,116.47s-51.55,115.99-111.69,115.99c-30.07,0-60.62-13.36-74.46-37.23v10.02c0,13.36-10.98,24.82-25.3,24.82-13.36,0-23.87-11.46-23.87-24.82V24.82c0-13.36,10.5-24.82,23.87-24.82,14.32,0,25.3,11.46,25.3,24.82V155.61Zm68.73,147.97c37.23,0,67.3-28.16,67.3-69.21s-30.07-67.78-67.3-67.78c-33.41,0-68.26,23.87-68.26,67.78s31.98,69.21,68.26,69.21Z"/>
          </g>
        </g>
      </g>
      <path d="M1686.68,22.37c0-12.8,9.11-22.13,22.02-22.13s21.91,9.33,21.91,22.13-9.11,22.24-21.91,22.24-22.02-9.44-22.02-22.24Zm4.66,0c0,10.52,6.73,17.9,17.35,17.9s17.47-7.37,17.47-17.9-6.95-17.9-17.47-17.9-17.35,7.37-17.35,17.9Zm22.02,2.39l6.08,9-6.84,.11-5.21-8.68h-1.84v8.68h-5.64V10.55h10.41c4.88,0,8.13,2.82,8.13,7.27,0,3.47-1.95,5.97-5.1,6.94Zm-7.81-9.11v4.88h4.44c1.52,0,2.82-.76,2.82-2.5s-1.3-2.39-2.82-2.39h-4.44Z"/>
    </g>
  </g>
</svg>