<svg xmlns="http://www.w3.org/2000/svg" x="0px" y="0px" width="100" height="100" viewBox="0 0 450 450">
  <path
    d="M175.000 1.183 C 10.270 21.534,-58.998 223.923,58.539 341.461 C 176.367 459.289,378.987 389.487,398.870 224.219 C 414.431 94.879,304.345 -14.797,175.000 1.183 M187.500 65.324 L 187.500 104.867 173.242 104.317 C 159.701 103.794,129.107 101.242,128.445 100.580 C 127.000 99.135,140.875 70.430,148.637 58.806 C 159.230 42.941,177.054 27.736,187.305 25.818 C 187.412 25.798,187.500 43.576,187.500 65.324 M217.903 27.842 C 233.022 34.032,250.478 53.703,262.154 77.708 C 266.660 86.972,272.233 100.692,271.700 101.211 C 271.124 101.773,240.795 103.953,227.148 104.413 L 211.719 104.933 211.719 65.304 L 211.719 25.676 213.477 26.213 C 214.443 26.508,216.435 27.241,217.903 27.842 M130.605 41.992 C 121.876 54.145,113.024 71.118,107.481 86.328 C 105.916 90.625,104.326 94.881,103.948 95.785 L 103.261 97.430 92.451 95.304 C 78.860 92.631,64.063 88.872,64.063 88.092 C 64.063 86.985,84.732 66.654,90.234 62.349 C 101.983 53.157,129.892 36.719,133.751 36.719 C 134.104 36.719,132.688 39.092,130.605 41.992 M278.172 42.383 C 294.786 50.725,308.330 60.206,321.404 72.645 C 328.407 79.308,337.015 89.027,336.431 89.611 C 335.776 90.266,320.569 93.747,308.414 96.024 L 296.906 98.179 295.612 94.597 C 287.418 71.900,278.644 54.408,268.705 40.955 C 264.762 35.617,264.668 35.603,278.172 42.383 M65.234 114.146 C 70.391 115.470,79.460 117.533,85.389 118.731 C 98.338 121.347,97.054 120.018,95.229 128.910 C 92.032 144.489,90.594 156.073,88.608 182.227 L 88.148 188.281 56.127 188.281 L 24.106 188.281 24.616 183.789 C 27.349 159.691,32.488 141.907,42.660 121.340 L 48.528 109.477 52.193 110.608 C 54.210 111.230,60.078 112.823,65.234 114.146 M357.704 122.070 C 367.402 141.585,372.487 159.259,375.349 183.398 L 375.835 187.500 343.839 187.500 L 311.843 187.500 311.434 182.617 C 311.210 179.932,310.633 172.813,310.153 166.797 C 309.210 154.985,307.173 140.618,304.808 129.092 L 303.323 121.855 304.982 121.489 C 305.894 121.288,312.793 119.892,320.313 118.387 C 327.832 116.882,337.676 114.634,342.188 113.393 C 346.699 112.151,350.791 111.091,351.281 111.036 C 351.771 110.982,354.661 115.947,357.704 122.070 M145.685 126.960 C 153.409 127.613,165.977 128.373,173.614 128.650 L 187.500 129.153 187.500 158.326 L 187.500 187.500 149.995 187.500 L 112.489 187.500 112.916 181.836 C 114.470 161.220,116.567 144.920,119.225 132.813 C 119.838 130.020,120.500 127.005,120.697 126.114 C 121.034 124.589,121.366 124.531,126.348 125.134 C 129.259 125.486,137.961 126.308,145.685 126.960 M279.881 128.516 C 283.471 145.835,285.885 163.580,287.029 181.055 L 287.451 187.500 249.976 187.500 L 212.500 187.500 212.500 158.203 L 212.500 128.906 221.067 128.906 C 231.365 128.906,252.973 127.620,266.406 126.208 C 279.459 124.836,279.106 124.776,279.881 128.516 M88.560 216.602 C 90.355 238.357,90.911 243.777,92.240 252.491 C 93.553 261.104,95.141 269.731,96.479 275.516 C 96.838 277.067,96.413 277.278,91.208 278.125 C 83.447 279.389,62.795 283.975,54.494 286.279 L 47.660 288.176 45.747 284.908 C 35.234 266.956,24.219 229.887,24.219 212.460 C 24.219 212.005,36.546 211.719,56.188 211.719 L 88.157 211.719 88.560 216.602 M188.281 240.911 L 188.281 269.322 175.195 269.846 C 167.998 270.134,154.727 270.941,145.703 271.640 C 136.680 272.339,127.394 272.942,125.068 272.979 L 120.840 273.047 119.835 268.750 C 117.105 257.068,114.351 236.677,112.950 217.773 L 112.559 212.500 150.420 212.500 L 188.281 212.500 188.281 240.911 M287.054 217.773 C 285.446 239.674,280.647 271.957,278.712 273.892 C 278.526 274.078,273.660 273.715,267.898 273.085 C 258.069 272.011,243.039 270.960,221.680 269.853 L 212.500 269.377 212.500 240.939 L 212.500 212.500 249.971 212.500 L 287.441 212.500 287.054 217.773 M375.349 216.602 C 372.502 240.617,367.507 258.004,357.730 277.930 C 354.726 284.053,352.021 289.060,351.720 289.058 C 351.418 289.055,347.656 288.039,343.359 286.799 C 334.897 284.358,317.861 280.448,308.789 278.864 C 305.674 278.320,303.125 277.794,303.125 277.695 C 303.125 277.597,303.813 274.171,304.654 270.083 C 307.772 254.930,310.928 231.009,310.946 222.386 C 310.951 220.172,311.173 217.041,311.439 215.430 L 311.923 212.500 343.879 212.500 L 375.835 212.500 375.349 216.602 M187.500 333.203 C 187.500 354.902,187.316 372.656,187.092 372.656 C 180.377 372.656,161.990 358.012,151.955 344.674 C 142.502 332.108,126.385 299.215,128.915 297.651 C 129.808 297.099,162.545 294.564,172.656 294.265 C 176.309 294.157,181.143 293.996,183.398 293.909 L 187.500 293.750 187.500 333.203 M235.156 294.926 C 243.830 295.333,271.287 297.638,271.674 297.992 C 272.604 298.844,261.480 323.231,255.356 333.764 C 244.845 351.841,222.127 372.656,212.908 372.656 C 212.684 372.656,212.500 354.890,212.500 333.175 L 212.500 293.694 219.336 294.099 C 223.096 294.322,230.215 294.694,235.156 294.926 M106.766 310.547 C 113.200 327.977,122.434 345.639,131.755 358.346 L 135.872 363.958 133.365 363.088 C 123.423 359.634,102.106 347.026,90.234 337.578 C 78.013 327.851,61.446 310.381,63.451 309.333 C 66.166 307.914,99.758 300.732,102.238 301.039 C 102.844 301.115,104.803 305.229,106.766 310.547 M309.795 303.912 C 321.762 306.316,335.770 309.728,336.444 310.402 C 337.563 311.522,319.909 329.505,309.766 337.578 C 297.894 347.026,276.577 359.634,266.635 363.088 L 264.128 363.958 268.237 358.346 C 277.670 345.460,287.146 327.369,293.146 310.790 C 294.982 305.717,296.849 301.565,297.295 301.564 C 297.741 301.563,303.366 302.620,309.795 303.912 "></path>
</svg>